<svg width="432" height="144" viewBox="0 0 432 144" fill="none" xmlns="http://www.w3.org/2000/svg">
<g clip-path="url(#clip0_1779_196)">
<path d="M397.598 0.000468H34.4212C33.0974 0.000468 31.7894 0.000468 30.4691 0.007668C29.3639 0.014868 28.2675 0.035784 27.1516 0.053388C24.7275 0.0818345 22.309 0.294503 19.9173 0.689544C17.529 1.09319 15.2154 1.85416 13.0549 2.94674C10.8971 4.04857 8.92543 5.48027 7.21144 7.18992C5.48845 8.89476 4.05221 10.8653 2.95794 13.0258C1.86065 15.1821 1.09978 17.4926 0.701624 19.8778C0.299678 22.2599 0.0833876 24.6695 0.0546931 27.085C0.0211913 28.1888 0.0176534 29.2962 0 30.4001V113.611C0.0176534 114.729 0.0211913 115.812 0.0546931 116.93C0.0833964 119.346 0.299687 121.755 0.701624 124.137C1.09869 126.524 1.8596 128.836 2.95794 130.993C4.05171 133.146 5.48816 135.109 7.21144 136.804C8.91893 138.521 10.8919 139.954 13.0549 141.047C15.2154 142.143 17.5287 142.908 19.9173 143.318C22.3094 143.71 24.7276 143.923 27.1516 143.955C28.2675 143.979 29.3639 143.993 30.4691 143.993C31.7894 144 33.0975 144 34.4212 144H397.598C398.896 144 400.214 144 401.512 143.993C402.612 143.993 403.74 143.979 404.84 143.955C407.259 143.925 409.673 143.712 412.06 143.318C414.456 142.906 416.778 142.14 418.949 141.047C421.11 139.953 423.081 138.521 424.787 136.804C426.506 135.102 427.945 133.141 429.053 130.993C430.143 128.834 430.896 126.522 431.288 124.137C431.69 121.755 431.914 119.346 431.958 116.93C431.972 115.812 431.972 114.729 431.972 113.611C432 112.304 432 111.003 432 109.674V34.3305C432 33.0122 432 31.7044 431.972 30.4001C431.972 29.2962 431.972 28.1888 431.958 27.0849C431.914 24.6692 431.69 22.2601 431.288 19.8777C430.895 17.4939 430.142 15.1835 429.053 13.0257C426.824 8.69517 423.291 5.17016 418.949 2.94642C416.778 1.85651 414.456 1.09573 412.06 0.68922C409.673 0.292438 407.259 0.079696 404.84 0.052884C403.74 0.035316 402.612 0.01422 401.512 0.0072C400.214 0 398.896 0.000468 397.598 0.000468Z" fill="#A6A6A6"/>
<path d="M30.4874 140.85C29.3875 140.85 28.3141 140.836 27.2228 140.812C24.9621 140.782 22.7067 140.586 20.475 140.224C18.3941 139.867 16.3783 139.202 14.494 138.252C12.627 137.31 10.9242 136.074 9.45072 134.592C7.95592 133.128 6.71143 131.43 5.76657 129.565C4.81129 127.688 4.15019 125.676 3.80628 123.599C3.43489 121.367 3.23395 119.111 3.2052 116.849C3.18231 116.09 3.15234 113.562 3.15234 113.562V30.3998C3.15234 30.3998 3.18426 27.9107 3.20538 27.1794C3.23291 24.9211 3.43268 22.6681 3.80296 20.44C4.1475 18.3574 4.80912 16.3396 5.76491 14.4564C6.70629 12.5927 7.94387 10.8932 9.42967 9.4238C10.9138 7.94038 12.6221 6.69832 14.4923 5.7429C16.3722 4.79568 18.3842 4.13558 20.4609 3.78472C22.6999 3.41956 24.9632 3.22213 27.2317 3.1941L30.4892 3.15015H401.495L404.791 3.19587C407.039 3.2225 409.282 3.41817 411.5 3.78119C413.598 4.13646 415.631 4.80116 417.532 5.75345C421.279 7.6789 424.327 10.7251 426.251 14.4652C427.191 16.3354 427.842 18.3368 428.183 20.4013C428.557 22.6477 428.767 24.9184 428.81 27.1953C428.821 28.2148 428.821 29.3099 428.821 30.3998C428.849 31.7498 428.849 33.0347 428.849 34.3302V109.673C428.849 110.981 428.849 112.258 428.821 113.544C428.821 114.715 428.821 115.787 428.806 116.891C428.764 119.127 428.558 121.357 428.189 123.564C427.853 125.655 427.195 127.683 426.24 129.576C425.288 131.42 424.051 133.104 422.574 134.564C421.099 136.054 419.393 137.297 417.522 138.245C415.626 139.203 413.595 139.87 411.5 140.224C409.268 140.588 407.013 140.784 404.752 140.812C403.695 140.836 402.587 140.85 401.512 140.85L397.599 140.857L30.4874 140.85Z" fill="black"/>
<path d="M89.4199 73.0824C89.4587 70.0776 90.2591 67.1314 91.7465 64.518C93.234 61.9045 95.3602 59.7088 97.9273 58.1349C96.2965 55.8124 94.1451 53.901 91.6439 52.5526C89.1427 51.2042 86.3607 50.456 83.5188 50.3673C77.4566 49.7328 71.5795 53.9847 68.4903 53.9847C65.3413 53.9847 60.585 50.4303 55.4632 50.5354C52.1503 50.6421 48.9216 51.6028 46.0917 53.3238C43.2619 55.0448 40.9273 57.4675 39.3155 60.3557C32.3335 72.41 37.5415 90.1258 44.2296 99.8696C47.5758 104.641 51.4865 109.97 56.6037 109.781C61.6111 109.574 63.4813 106.597 69.5257 106.597C75.514 106.597 77.2686 109.781 82.4896 109.661C87.8628 109.574 91.2482 104.869 94.477 100.052C96.8812 96.6527 98.7313 92.8953 99.9586 88.9194C96.837 87.6027 94.173 85.3989 92.2989 82.5826C90.4248 79.7664 89.4235 76.4623 89.4199 73.0824Z" fill="white"/>
<path d="M79.5603 43.9593C82.49 40.4521 83.9333 35.9443 83.5838 31.3931C79.1079 31.8619 74.9734 33.9951 72.0041 37.3677C70.5523 39.0153 69.4404 40.932 68.7319 43.0084C68.0235 45.0848 67.7323 47.28 67.8752 49.4687C70.1139 49.4917 72.3288 49.0078 74.3528 48.0535C76.3769 47.0991 78.1574 45.6993 79.5603 43.9593Z" fill="white"/>
<path d="M152.719 97.7031H135.631L131.527 109.786H124.289L140.475 65.0815H147.994L164.18 109.786H156.819L152.719 97.7031ZM137.4 92.1273H150.945L144.268 72.5172H144.081L137.4 92.1273Z" fill="white"/>
<path d="M199.14 93.4912C199.14 103.62 193.703 110.127 185.5 110.127C183.422 110.236 181.355 109.758 179.536 108.75C177.717 107.741 176.22 106.242 175.216 104.425H175.061V120.568H168.352V77.1927H174.846V82.6138H174.969C176.019 80.805 177.542 79.3139 179.374 78.2992C181.207 77.2846 183.281 76.7843 185.376 76.8517C193.672 76.8517 199.14 83.3908 199.14 93.4912ZM192.244 93.4912C192.244 86.8924 188.824 82.5541 183.606 82.5541C178.48 82.5541 175.032 86.9838 175.032 93.4912C175.032 100.058 178.48 104.456 183.606 104.456C188.824 104.456 192.244 100.15 192.244 93.4912Z" fill="white"/>
<path d="M235.105 93.4912C235.105 103.62 229.668 110.127 221.465 110.127C219.386 110.236 217.32 109.758 215.501 108.75C213.682 107.741 212.185 106.242 211.181 104.425H211.025V120.568H204.316V77.1927H210.81V82.6138H210.934C211.984 80.8049 213.507 79.3138 215.339 78.2992C217.172 77.2846 219.246 76.7843 221.341 76.8517C229.637 76.8517 235.105 83.3908 235.105 93.4912ZM228.209 93.4912C228.209 86.8924 224.789 82.554 219.571 82.554C214.445 82.554 210.997 86.9837 210.997 93.4912C210.997 100.058 214.445 104.456 219.571 104.456C224.789 104.456 228.209 100.15 228.209 93.4912Z" fill="white"/>
<path d="M258.891 97.3303C259.388 101.763 263.707 104.674 269.609 104.674C275.264 104.674 279.332 101.763 279.332 97.766C279.332 94.2961 276.878 92.2184 271.068 90.7946L265.258 89.3988C257.026 87.416 253.205 83.577 253.205 77.3473C253.205 69.634 259.945 64.3359 269.517 64.3359C278.99 64.3359 285.484 69.634 285.703 77.3473H278.93C278.525 72.8859 274.826 70.193 269.422 70.193C264.017 70.193 260.319 72.9176 260.319 76.8832C260.319 80.0438 262.681 81.9035 268.459 83.3272L273.399 84.5366C282.597 86.7058 286.418 90.3902 286.418 96.9292C286.418 105.293 279.737 110.531 269.112 110.531C259.17 110.531 252.457 105.416 252.023 97.3299L258.891 97.3303Z" fill="white"/>
<path d="M300.888 69.4797V77.193H307.103V82.4911H300.888V100.459C300.888 103.251 302.132 104.552 304.864 104.552C305.602 104.539 306.339 104.487 307.071 104.397V109.663C305.843 109.892 304.594 109.996 303.345 109.973C296.728 109.973 294.147 107.494 294.147 101.173V82.4911H289.395V77.193H294.147V69.4797H300.888Z" fill="white"/>
<path d="M310.711 93.4914C310.711 83.2364 316.768 76.7922 326.213 76.7922C335.689 76.7922 341.718 83.2362 341.718 93.4914C341.718 103.775 335.721 110.191 326.213 110.191C316.708 110.191 310.711 103.775 310.711 93.4914ZM334.882 93.4914C334.882 86.4567 331.649 82.3047 326.213 82.3047C320.776 82.3047 317.547 86.4883 317.547 93.4914C317.547 100.554 320.776 104.675 326.213 104.675C331.649 104.675 334.882 100.554 334.882 93.4914Z" fill="white"/>
<path d="M347.25 77.1924H353.649V82.74H353.804C354.237 81.0074 355.255 79.4762 356.687 78.4038C358.118 77.3314 359.877 76.7832 361.666 76.8514C362.439 76.8487 363.21 76.9324 363.965 77.101V83.3588C362.988 83.0614 361.97 82.9248 360.95 82.9545C359.975 82.9151 359.004 83.0865 358.102 83.4568C357.2 83.8272 356.389 84.3879 355.725 85.1003C355.061 85.8127 354.559 86.66 354.254 87.584C353.949 88.508 353.849 89.4869 353.959 90.4533V109.786H347.25L347.25 77.1924Z" fill="white"/>
<path d="M394.898 100.213C393.995 106.13 388.217 110.191 380.824 110.191C371.316 110.191 365.414 103.838 365.414 93.6461C365.414 83.4227 371.347 76.7922 380.542 76.7922C389.585 76.7922 395.271 82.9868 395.271 92.8692V95.1614H372.187V95.5657C372.08 96.7652 372.231 97.9736 372.628 99.1106C373.026 100.248 373.662 101.287 374.494 102.16C375.325 103.034 376.334 103.72 377.452 104.175C378.57 104.63 379.772 104.842 380.979 104.798C382.565 104.946 384.156 104.58 385.516 103.754C386.876 102.928 387.932 101.686 388.527 100.213L394.898 100.213ZM372.218 90.4856H388.559C388.619 89.407 388.455 88.3277 388.077 87.3154C387.699 86.303 387.116 85.3795 386.363 84.6027C385.61 83.826 384.704 83.2128 383.703 82.8016C382.701 82.3904 381.625 82.1901 380.542 82.2133C379.449 82.2068 378.366 82.4162 377.355 82.8292C376.344 83.2423 375.426 83.8509 374.652 84.62C373.878 85.3891 373.264 86.3034 372.847 87.3101C372.429 88.3169 372.215 89.3961 372.218 90.4856Z" fill="white"/>
<path d="M136.558 31.4321C137.965 31.3314 139.376 31.5433 140.691 32.0525C142.005 32.5616 143.19 33.3554 144.159 34.3764C145.129 35.3975 145.859 36.6204 146.298 37.957C146.736 39.2935 146.871 40.7105 146.694 42.1055C146.694 48.968 142.975 52.9127 136.558 52.9127H128.777V31.4321H136.558ZM132.123 49.8749H136.184C137.189 49.9348 138.195 49.7705 139.129 49.3939C140.062 49.0172 140.899 48.4378 141.58 47.6978C142.26 46.9578 142.767 46.0757 143.062 45.1159C143.358 44.1561 143.435 43.1426 143.288 42.1493C143.424 41.1599 143.339 40.1527 143.039 39.1999C142.739 38.2471 142.232 37.3723 141.553 36.6382C140.874 35.904 140.04 35.3287 139.112 34.9535C138.184 34.5782 137.184 34.4123 136.184 34.4676H132.123V49.8749Z" fill="white"/>
<path d="M150.47 44.7999C150.368 43.7346 150.49 42.6597 150.829 41.6443C151.167 40.6288 151.715 39.6952 152.437 38.9033C153.159 38.1113 154.039 37.4786 155.02 37.0456C156.002 36.6126 157.063 36.3889 158.136 36.3889C159.209 36.3889 160.271 36.6126 161.252 37.0456C162.233 37.4786 163.113 38.1113 163.835 38.9033C164.557 39.6952 165.105 40.6288 165.443 41.6443C165.782 42.6597 165.904 43.7346 165.802 44.7999C165.906 45.8663 165.786 46.9426 165.448 47.9597C165.11 48.9768 164.562 49.9121 163.84 50.7056C163.118 51.4991 162.238 52.1332 161.255 52.5671C160.273 53.001 159.21 53.2252 158.136 53.2252C157.062 53.2252 155.999 53.001 155.017 52.5671C154.034 52.1332 153.154 51.4991 152.432 50.7056C151.71 49.9121 151.162 48.9768 150.824 47.9597C150.486 46.9426 150.366 45.8663 150.47 44.7999ZM162.502 44.7999C162.502 41.286 160.919 39.2311 158.141 39.2311C155.353 39.2311 153.784 41.286 153.784 44.7999C153.784 48.3419 155.353 50.381 158.141 50.381C160.919 50.3809 162.502 48.3278 162.502 44.7999Z" fill="white"/>
<path d="M186.182 52.9122H182.854L179.494 40.9731H179.24L175.894 52.9122H172.598L168.117 36.7017H171.371L174.283 49.0713H174.523L177.865 36.7017H180.943L184.285 49.0713H184.539L187.437 36.7017H190.645L186.182 52.9122Z" fill="white"/>
<path d="M194.414 36.7017H197.502V39.2769H197.742C198.149 38.3519 198.835 37.5766 199.704 37.0589C200.574 36.5412 201.584 36.3069 202.593 36.3888C203.384 36.3295 204.178 36.4484 204.917 36.7367C205.656 37.0251 206.32 37.4755 206.86 38.0545C207.4 38.6335 207.803 39.3264 208.039 40.0817C208.274 40.8371 208.336 41.6356 208.22 42.418V52.912H205.012V43.2214C205.012 40.6164 203.877 39.3208 201.504 39.3208C200.967 39.2959 200.431 39.387 199.932 39.588C199.434 39.789 198.985 40.0951 198.616 40.4853C198.248 40.8754 197.968 41.3405 197.796 41.8486C197.625 42.3567 197.565 42.8957 197.622 43.4288V52.9122H194.414L194.414 36.7017Z" fill="white"/>
<path d="M213.34 30.3735H216.548V52.9122H213.34V30.3735Z" fill="white"/>
<path d="M221.005 44.8002C220.903 43.7348 221.025 42.6599 221.364 41.6444C221.703 40.6289 222.251 39.6953 222.973 38.9033C223.695 38.1114 224.574 37.4786 225.556 37.0456C226.537 36.6126 227.599 36.3889 228.672 36.3889C229.745 36.3889 230.807 36.6126 231.788 37.0456C232.77 37.4786 233.649 38.1114 234.371 38.9033C235.093 39.6953 235.641 40.6289 235.98 41.6444C236.319 42.6599 236.441 43.7348 236.339 44.8002C236.443 45.8666 236.322 46.943 235.984 47.9601C235.646 48.9771 235.099 49.9125 234.377 50.7059C233.654 51.4994 232.774 52.1335 231.792 52.5674C230.809 53.0013 229.746 53.2254 228.672 53.2254C227.598 53.2254 226.535 53.0013 225.552 52.5674C224.57 52.1335 223.69 51.4994 222.967 50.7059C222.245 49.9125 221.698 48.9771 221.36 47.9601C221.022 46.943 220.901 45.8666 221.005 44.8002ZM233.037 44.8002C233.037 41.2863 231.454 39.2314 228.676 39.2314C225.888 39.2314 224.319 41.2863 224.319 44.8002C224.319 48.3422 225.888 50.3813 228.676 50.3813C231.454 50.3812 233.037 48.3281 233.037 44.8002Z" fill="white"/>
<path d="M239.719 48.328C239.719 45.41 241.898 43.7278 245.765 43.4887L250.168 43.2356V41.8364C250.168 40.1242 249.033 39.1575 246.84 39.1575C245.049 39.1575 243.808 39.8131 243.452 40.9592H240.346C240.674 38.1748 243.301 36.3889 246.988 36.3889C251.064 36.3889 253.362 38.4121 253.362 41.8364V52.9123H250.274V50.6342H250.02C249.505 51.4514 248.782 52.1176 247.924 52.5647C247.066 53.0119 246.104 53.224 245.137 53.1794C244.455 53.2502 243.765 53.1776 243.113 52.9663C242.46 52.755 241.859 52.4096 241.349 51.9526C240.838 51.4955 240.429 50.9368 240.149 50.3125C239.868 49.6882 239.721 49.0121 239.719 48.328ZM250.168 46.9428V45.5875L246.199 45.8406C243.96 45.99 242.945 46.7494 242.945 48.1785C242.945 49.6375 244.214 50.4865 245.959 50.4865C246.47 50.5381 246.987 50.4866 247.478 50.3351C247.969 50.1836 248.424 49.9351 248.817 49.6045C249.21 49.2739 249.532 48.8678 249.764 48.4106C249.996 47.9533 250.134 47.4541 250.168 46.9428Z" fill="white"/>
<path d="M257.578 44.8C257.578 39.6777 260.219 36.4328 264.326 36.4328C265.342 36.3861 266.35 36.6287 267.233 37.1324C268.116 37.636 268.836 38.3798 269.311 39.2768H269.551V30.3735H272.759V52.9122H269.685V50.351H269.431C268.92 51.242 268.174 51.9765 267.274 52.4751C266.374 52.9736 265.355 53.2172 264.326 53.1794C260.191 53.1795 257.578 49.9345 257.578 44.8ZM260.892 44.8C260.892 48.2382 262.517 50.3072 265.236 50.3072C267.94 50.3072 269.611 48.2084 269.611 44.814C269.611 41.4355 267.922 39.3068 265.236 39.3068C262.535 39.3068 260.892 41.3898 260.892 44.8Z" fill="white"/>
<path d="M286.032 44.7999C285.93 43.7346 286.052 42.6597 286.391 41.6443C286.73 40.6288 287.278 39.6952 288 38.9033C288.721 38.1113 289.601 37.4786 290.583 37.0456C291.564 36.6126 292.625 36.3889 293.699 36.3889C294.772 36.3889 295.833 36.6126 296.814 37.0456C297.796 37.4786 298.676 38.1113 299.397 38.9033C300.119 39.6952 300.667 40.6288 301.006 41.6443C301.345 42.6597 301.467 43.7346 301.365 44.7999C301.469 45.8663 301.348 46.9426 301.01 47.9597C300.672 48.9768 300.125 49.9121 299.403 50.7056C298.681 51.4991 297.8 52.1332 296.818 52.5671C295.836 53.001 294.773 53.2252 293.699 53.2252C292.624 53.2252 291.562 53.001 290.579 52.5671C289.597 52.1332 288.716 51.4991 287.994 50.7056C287.272 49.9121 286.725 48.9768 286.387 47.9597C286.049 46.9426 285.928 45.8663 286.032 44.7999ZM298.065 44.7999C298.065 41.286 296.482 39.2311 293.704 39.2311C290.915 39.2311 289.346 41.286 289.346 44.7999C289.346 48.3419 290.915 50.381 293.704 50.381C296.482 50.3809 298.065 48.3278 298.065 44.7999Z" fill="white"/>
<path d="M305.672 36.7017H308.76V39.2769H309C309.407 38.3519 310.093 37.5766 310.962 37.0589C311.832 36.5412 312.842 36.3069 313.851 36.3888C314.642 36.3295 315.436 36.4484 316.175 36.7367C316.913 37.0251 317.578 37.4755 318.118 38.0545C318.658 38.6335 319.061 39.3264 319.297 40.0817C319.532 40.8371 319.594 41.6356 319.478 42.418V52.912H316.27V43.2214C316.27 40.6164 315.134 39.3208 312.762 39.3208C312.225 39.2959 311.689 39.387 311.19 39.588C310.692 39.789 310.243 40.0951 309.874 40.4853C309.505 40.8754 309.226 41.3405 309.054 41.8486C308.883 42.3567 308.823 42.8957 308.88 43.4288V52.9122H305.672V36.7017Z" fill="white"/>
<path d="M337.597 32.666V36.7758H341.119V39.4705H337.597V47.8061C337.597 49.5041 338.299 50.2477 339.896 50.2477C340.305 50.2464 340.713 50.2217 341.119 50.1738V52.8387C340.543 52.9414 339.959 52.9961 339.374 53.0021C335.806 53.0021 334.385 51.7506 334.385 48.6252V39.4704H331.805V36.7756H334.385V32.666H337.597Z" fill="white"/>
<path d="M345.504 30.3735H348.684V39.3068H348.938C349.364 38.3732 350.069 37.5935 350.956 37.0738C351.843 36.5542 352.869 36.3199 353.894 36.4028C354.681 36.3602 355.468 36.4912 356.198 36.7865C356.928 37.0819 357.584 37.5343 358.119 38.1115C358.654 38.6887 359.054 39.3765 359.292 40.1258C359.529 40.8751 359.598 41.6674 359.493 42.4462V52.9122H356.281V43.2354C356.281 40.6462 355.072 39.3348 352.805 39.3348C352.254 39.2897 351.699 39.3653 351.18 39.5563C350.661 39.7473 350.19 40.0491 349.8 40.4406C349.411 40.832 349.111 41.3037 348.923 41.8226C348.735 42.3415 348.663 42.8951 348.712 43.4446V52.9122H345.504L345.504 30.3735Z" fill="white"/>
<path d="M378.197 48.5349C377.761 50.0165 376.817 51.298 375.529 52.1554C374.241 53.0127 372.692 53.3912 371.153 53.2248C370.082 53.2529 369.018 53.0484 368.034 52.6253C367.05 52.2022 366.17 51.5707 365.456 50.7746C364.741 49.9785 364.209 49.0369 363.896 48.0151C363.583 46.9934 363.497 45.9159 363.644 44.8576C363.501 43.796 363.589 42.7163 363.901 41.6914C364.213 40.6666 364.743 39.7207 365.453 38.9176C366.164 38.1145 367.039 37.4731 368.02 37.0368C369.001 36.6004 370.065 36.3793 371.139 36.3885C375.662 36.3885 378.391 39.4701 378.391 44.5605V45.6768H366.912V45.8561C366.861 46.4509 366.936 47.0497 367.132 47.614C367.327 48.1783 367.639 48.6957 368.046 49.1329C368.454 49.5702 368.949 49.9176 369.499 50.1531C370.049 50.3885 370.642 50.5067 371.241 50.5001C372.008 50.5919 372.786 50.4541 373.475 50.1042C374.163 49.7542 374.732 49.208 375.108 48.5348L378.197 48.5349ZM366.912 43.3107H375.122C375.163 42.7667 375.089 42.2202 374.905 41.7064C374.721 41.1926 374.431 40.7229 374.054 40.3274C373.677 39.9319 373.222 39.6194 372.717 39.41C372.211 39.2005 371.668 39.0988 371.121 39.1113C370.566 39.1044 370.015 39.2082 369.502 39.4169C368.988 39.6255 368.521 39.9345 368.128 40.3259C367.736 40.7173 367.426 41.183 367.217 41.6956C367.008 42.2083 366.904 42.7574 366.912 43.3107Z" fill="white"/>
</g>
<defs>
<clipPath id="clip0_1779_196">
<rect width="432" height="144" fill="white"/>
</clipPath>
</defs>
</svg>
