<svg width="59" height="24" viewBox="0 0 59 24" fill="none" xmlns="http://www.w3.org/2000/svg">
<g id="Group">
<g id="Group_2">
<path id="Vector" d="M11.1101 3.09491C11.7762 2.26178 12.2282 1.14313 12.1089 0C11.1339 0.0484842 9.94401 0.643281 9.25513 1.47707C8.63659 2.19108 8.08913 3.35657 8.23186 4.45178C9.32641 4.54672 10.42 3.90467 11.1101 3.09491Z" fill="#83CDC1"/>
<path id="Vector_2" d="M12.0971 4.66577C10.5075 4.57108 9.15599 5.56792 8.39689 5.56792C7.63738 5.56792 6.47495 4.71348 5.2177 4.73651C3.5813 4.76054 2.06291 5.68578 1.23251 7.15733C-0.475487 10.1012 0.78177 14.4679 2.44271 16.8655C3.24929 18.0516 4.22137 19.3577 5.50223 19.3108C6.71243 19.2633 7.18677 18.5272 8.65782 18.5272C10.1278 18.5272 10.5551 19.3108 11.8361 19.287C13.1646 19.2633 13.9952 18.1003 14.8018 16.913C15.7271 15.5608 16.1059 14.2552 16.1297 14.1835C16.1059 14.1598 13.568 13.1862 13.5444 10.2668C13.5205 7.82238 15.537 6.65967 15.6319 6.58757C14.4931 4.90338 12.7139 4.71348 12.0971 4.66577Z" fill="#83CDC1"/>
</g>
<g id="Group_3">
<path id="Vector_3" d="M27.4373 1.35767C30.8922 1.35767 33.2979 3.73915 33.2979 7.2064C33.2979 10.686 30.8427 13.0799 27.3506 13.0799H23.5254V19.1631H20.7617V1.35767L27.4373 1.35767ZM23.5254 10.7601H26.6966C29.1028 10.7601 30.4723 9.46459 30.4723 7.21878C30.4723 4.9732 29.1028 3.68988 26.709 3.68988H23.5254V10.7601Z" fill="#83CDC1"/>
<path id="Vector_4" d="M34.0195 15.4734C34.0195 13.2029 35.7594 11.8086 38.8444 11.6358L42.3978 11.4261V10.4268C42.3978 8.98303 41.4229 8.11931 39.7945 8.11931C38.2517 8.11931 37.2892 8.8595 37.055 10.0195H34.5379C34.6859 7.67495 36.6847 5.94751 39.893 5.94751C43.0394 5.94751 45.0506 7.61331 45.0506 10.2168V19.1627H42.4963V17.0281H42.4349C41.6823 18.4718 40.0411 19.3848 38.3384 19.3848C35.7965 19.3848 34.0195 17.8054 34.0195 15.4734ZM42.3978 14.3012V13.2771L39.2019 13.4744C37.6101 13.5856 36.7095 14.2889 36.7095 15.3994C36.7095 16.5345 37.6472 17.2749 39.0786 17.2749C40.9417 17.2749 42.3978 15.9916 42.3978 14.3012Z" fill="#83CDC1"/>
<path id="Vector_5" d="M47.463 23.9383V21.7788C47.6601 21.8281 48.1042 21.8281 48.3265 21.8281C49.5603 21.8281 50.2267 21.31 50.6337 19.9774C50.6337 19.9526 50.8684 19.1877 50.8684 19.1753L46.1797 6.18213H49.0667L52.3492 16.7446H52.3983L55.6808 6.18213H58.4941L53.6321 19.8415C52.522 22.9881 51.2387 23.9999 48.5488 23.9999C48.3265 23.9999 47.6601 23.9751 47.463 23.9383Z" fill="#83CDC1"/>
</g>
</g>
</svg>
