<svg width="62" height="24" viewBox="0 0 62 24" fill="none" xmlns="http://www.w3.org/2000/svg">
<g id="G_Pay_Lockup_1_">
<g id="Pay_Typeface_3_">
<path id="Letter_p_3_" d="M29.0444 11.6723V18.7483H26.7988V1.27466H32.752C34.2608 1.27466 35.5474 1.77758 36.6 2.78343C37.676 3.78928 38.214 5.01735 38.214 6.46764C38.214 7.95302 37.676 9.18109 36.6 10.1752C35.5591 11.1694 34.2725 11.6606 32.752 11.6606H29.0444V11.6723ZM29.0444 3.42671V9.52027H32.7988C33.6877 9.52027 34.4363 9.21618 35.0211 8.61969C35.6175 8.0232 35.9216 7.29805 35.9216 6.47934C35.9216 5.67232 35.6175 4.95887 35.0211 4.36238C34.4363 3.7425 33.6994 3.4384 32.7988 3.4384H29.0444V3.42671Z" fill="#83CDC1"/>
<path id="Letter_a_3_" d="M44.0855 6.39795C45.7463 6.39795 47.0563 6.84239 48.0153 7.73128C48.9744 8.62017 49.4539 9.83655 49.4539 11.3804V18.7488H47.3136V17.088H47.22C46.296 18.4564 45.0563 19.1348 43.5124 19.1348C42.1908 19.1348 41.0914 18.7488 40.2025 17.9652C39.3136 17.1816 38.8691 16.2108 38.8691 15.0412C38.8691 13.8015 39.337 12.819 40.2726 12.0939C41.2083 11.357 42.4598 10.9944 44.0153 10.9944C45.3487 10.9944 46.4481 11.2401 47.3019 11.7313V11.2167C47.3019 10.433 46.9978 9.77806 46.3779 9.22836C45.758 8.67865 45.0329 8.40964 44.2025 8.40964C42.951 8.40964 41.9569 8.93596 41.2317 10.0003L39.2551 8.76052C40.3428 7.18157 41.9569 6.39795 44.0855 6.39795ZM41.1849 15.0763C41.1849 15.6611 41.4305 16.1523 41.9335 16.5383C42.4247 16.9243 43.0095 17.1231 43.6762 17.1231C44.6235 17.1231 45.4656 16.7722 46.2025 16.0705C46.9393 15.3687 47.3136 14.55 47.3136 13.6026C46.6118 13.0529 45.6411 12.7722 44.3896 12.7722C43.4773 12.7722 42.7171 12.9944 42.1089 13.4272C41.489 13.8833 41.1849 14.433 41.1849 15.0763Z" fill="#83CDC1"/>
<path id="Letter_y_3_" d="M61.6642 6.78345L54.1788 23.9998H51.863L54.6466 17.9764L49.7109 6.78345H52.1554L55.7109 15.3682H55.7577L59.2197 6.78345H61.6642Z" fill="#83CDC1"/>
</g>
<g id="G_Mark_1_">
<path id="Blue_500" d="M20.1117 10.2453C20.1117 9.51319 20.0462 8.8126 19.9246 8.13892H10.5117V11.9986L15.9328 11.9997C15.7129 13.2839 15.0053 14.3787 13.9211 15.1085V17.6126H17.148C19.0322 15.8687 20.1117 13.291 20.1117 10.2453Z" fill="#83CDC1"/>
<path id="Green_500_1_" d="M13.9231 15.1085C13.0249 15.7144 11.8681 16.0688 10.5149 16.0688C7.9009 16.0688 5.68335 14.3074 4.8892 11.9331H1.56055V14.5156C3.20967 17.7881 6.59914 20.0337 10.5149 20.0337C13.2214 20.0337 15.4951 19.1436 17.15 17.6115L13.9231 15.1085Z" fill="#83CDC1"/>
<path id="Yellow_500_1_" d="M4.57484 10.0175C4.57484 9.35081 4.68595 8.70637 4.88829 8.10052V5.51807H1.55964C0.877765 6.87128 0.494141 8.39877 0.494141 10.0175C0.494141 11.6362 0.878934 13.1637 1.55964 14.5169L4.88829 11.9344C4.68595 11.3286 4.57484 10.6841 4.57484 10.0175Z" fill="#83CDC1"/>
<path id="Red_500" d="M10.5149 3.96491C11.9921 3.96491 13.3149 4.47368 14.3594 5.46784L17.219 2.61053C15.4822 0.992983 13.2179 0 10.5149 0C6.60031 0 3.20967 2.24561 1.56055 5.51813L4.8892 8.10058C5.68335 5.72632 7.9009 3.96491 10.5149 3.96491Z" fill="#83CDC1"/>
</g>
</g>
</svg>
