<svg xmlns="http://www.w3.org/2000/svg" width="162" height="49" viewBox="0 0 162 49" fill="none">
  <g clip-path="url(#clip0_1768_134)">
    <path d="M156 0.5H6C2.68629 0.5 0 3.18629 0 6.5V42.5C0 45.8137 2.68629 48.5 6 48.5H156C159.314 48.5 162 45.8137 162 42.5V6.5C162 3.18629 159.314 0.5 156 0.5Z" fill="black"/>
    <path d="M156 1.46C158.784 1.46 161.04 3.716 161.04 6.5V42.5C161.04 45.284 158.784 47.54 156 47.54H6C3.216 47.54 0.96 45.284 0.96 42.5V6.5C0.96 3.716 3.216 1.46 6 1.46H156ZM156 0.5H6C2.7 0.5 0 3.2 0 6.5V42.5C0 45.8 2.7 48.5 6 48.5H156C159.3 48.5 162 45.8 162 42.5V6.5C162 3.2 159.3 0.5 156 0.5Z" fill="#A6A6A6"/>
    <path d="M56.9051 12.7879C56.9051 13.7959 56.6051 14.5999 56.0051 15.1879C55.3331 15.8959 54.4451 16.2559 53.3651 16.2559C52.2851 16.2559 51.4451 15.8959 50.7131 15.1759C49.9811 14.4559 49.6211 13.5559 49.6211 12.4999C49.6211 11.4439 49.9811 10.5439 50.7131 9.8239C51.4451 9.1039 52.3211 8.7439 53.3651 8.7439C53.8811 8.7439 54.3731 8.8399 54.8411 9.0439C55.3091 9.2479 55.6811 9.5119 55.9691 9.8479L55.3331 10.4839C54.8531 9.9199 54.2051 9.6319 53.3651 9.6319C52.6091 9.6319 51.9491 9.8959 51.3971 10.4359C50.8451 10.9639 50.5691 11.6599 50.5691 12.5119C50.5691 13.3639 50.8451 14.0599 51.3971 14.5879C51.9491 15.1159 52.6091 15.3919 53.3651 15.3919C54.1691 15.3919 54.8411 15.1279 55.3811 14.5879C55.7291 14.2399 55.9331 13.7479 55.9811 13.1239H53.3651V12.2599H56.8571C56.8931 12.4519 56.9051 12.6319 56.9051 12.7999V12.7879Z" fill="white" stroke="white" stroke-width="0.2" stroke-miterlimit="10"/>
    <path d="M62.4383 9.7879H59.1623V12.0679H62.1143V12.9319H59.1623V15.2119H62.4383V16.0999H58.2383V8.8999H62.4383V9.7879Z" fill="white" stroke="white" stroke-width="0.2" stroke-miterlimit="10"/>
    <path d="M66.3384 16.0999H65.4144V9.7879H63.3984V8.8999H68.3424V9.7879H66.3264V16.0999H66.3384Z" fill="white" stroke="white" stroke-width="0.2" stroke-miterlimit="10"/>
    <path d="M71.9297 16.0999V8.8999H72.8537V16.0999H71.9297Z" fill="white" stroke="white" stroke-width="0.2" stroke-miterlimit="10"/>
    <path d="M76.9556 16.0999H76.0316V9.7879H74.0156V8.8999H78.9596V9.7879H76.9436V16.0999H76.9556Z" fill="white" stroke="white" stroke-width="0.2" stroke-miterlimit="10"/>
    <path d="M88.3321 15.1639C87.6241 15.8959 86.7481 16.2559 85.6921 16.2559C84.6361 16.2559 83.7601 15.8959 83.0521 15.1639C82.3441 14.4319 81.9961 13.5439 81.9961 12.4999C81.9961 11.4559 82.3441 10.5559 83.0521 9.8359C83.7601 9.1039 84.6361 8.7439 85.6921 8.7439C86.7481 8.7439 87.6121 9.1039 88.3321 9.8359C89.0401 10.5679 89.4001 11.4559 89.4001 12.4999C89.4001 13.5439 89.0401 14.4439 88.3441 15.1639H88.3321ZM83.7361 14.5639C84.2641 15.1039 84.9241 15.3679 85.6921 15.3679C86.4601 15.3679 87.1201 15.1039 87.6481 14.5639C88.1761 14.0239 88.4521 13.3399 88.4521 12.4999C88.4521 11.6599 88.1881 10.9759 87.6481 10.4359C87.1201 9.8959 86.4601 9.6319 85.6921 9.6319C84.9241 9.6319 84.2641 9.8959 83.7361 10.4359C83.2081 10.9759 82.9321 11.6599 82.9321 12.4999C82.9321 13.3399 83.1961 14.0239 83.7361 14.5639Z" fill="white" stroke="white" stroke-width="0.2" stroke-miterlimit="10"/>
    <path d="M90.6953 16.0999V8.8999H91.8233L95.3273 14.5039H95.3633L95.3273 13.1119V8.8999H96.2513V16.0999H95.2913L91.6313 10.2319H91.5953L91.6313 11.6239V16.1119H90.7073L90.6953 16.0999Z" fill="white" stroke="white" stroke-width="0.2" stroke-miterlimit="10"/>
    <path d="M81.7661 26.6C78.9461 26.6 76.6421 28.748 76.6421 31.7C76.6421 34.652 78.9461 36.8 81.7661 36.8C84.5861 36.8 86.8901 34.64 86.8901 31.7C86.8901 28.76 84.5861 26.6 81.7661 26.6ZM81.7661 34.796C80.2181 34.796 78.8861 33.524 78.8861 31.7C78.8861 29.876 80.2181 28.604 81.7661 28.604C83.3141 28.604 84.6461 29.864 84.6461 31.7C84.6461 33.536 83.3141 34.796 81.7661 34.796ZM70.5821 26.6C67.7621 26.6 65.4581 28.748 65.4581 31.7C65.4581 34.652 67.7621 36.8 70.5821 36.8C73.4021 36.8 75.7061 34.64 75.7061 31.7C75.7061 28.76 73.4021 26.6 70.5821 26.6ZM70.5821 34.796C69.0341 34.796 67.7021 33.524 67.7021 31.7C67.7021 29.876 69.0341 28.604 70.5821 28.604C72.1301 28.604 73.4621 29.864 73.4621 31.7C73.4621 33.536 72.1301 34.796 70.5821 34.796ZM57.2861 28.172V30.332H62.4701C62.3141 31.556 61.9061 32.444 61.2941 33.056C60.5381 33.812 59.3621 34.64 57.2981 34.64C54.1061 34.64 51.6101 32.072 51.6101 28.88C51.6101 25.688 54.1061 23.12 57.2981 23.12C59.0141 23.12 60.2741 23.792 61.1981 24.668L62.7221 23.144C61.4261 21.908 59.7101 20.96 57.2861 20.96C52.9181 20.96 49.2461 24.512 49.2461 28.892C49.2461 33.272 52.9181 36.824 57.2861 36.824C59.6501 36.824 61.4261 36.056 62.8181 34.604C64.2461 33.176 64.6901 31.16 64.6901 29.54C64.6901 29.036 64.6541 28.568 64.5701 28.184H57.2861V28.172ZM111.658 29.852C111.238 28.712 109.942 26.6 107.29 26.6C104.638 26.6 102.478 28.664 102.478 31.7C102.478 34.556 104.638 36.8 107.542 36.8C109.882 36.8 111.238 35.372 111.79 34.544L110.05 33.38C109.474 34.232 108.682 34.796 107.542 34.796C106.402 34.796 105.586 34.268 105.07 33.248L111.898 30.428L111.67 29.852H111.658ZM104.698 31.556C104.638 29.588 106.222 28.58 107.362 28.58C108.25 28.58 109.006 29.024 109.258 29.66L104.698 31.556ZM99.1541 36.5H101.398V21.5H99.1541V36.5ZM95.4821 27.74H95.4101C94.9061 27.14 93.9461 26.6 92.7221 26.6C90.1661 26.6 87.8261 28.844 87.8261 31.724C87.8261 34.604 90.1661 36.812 92.7221 36.812C93.9461 36.812 94.9061 36.272 95.4101 35.648H95.4821V36.38C95.4821 38.336 94.4381 39.38 92.7581 39.38C91.3901 39.38 90.5381 38.396 90.1901 37.568L88.2341 38.384C88.7981 39.74 90.2861 41.396 92.7581 41.396C95.3861 41.396 97.6061 39.848 97.6061 36.08V26.912H95.4821V27.74ZM92.9021 34.796C91.3541 34.796 90.0581 33.5 90.0581 31.724C90.0581 29.948 91.3541 28.616 92.9021 28.616C94.4501 28.616 95.6261 29.936 95.6261 31.724C95.6261 33.512 94.4261 34.796 92.9021 34.796ZM122.17 21.5H116.806V36.5H119.05V30.812H122.182C124.666 30.812 127.102 29.012 127.102 26.156C127.102 23.3 124.666 21.5 122.182 21.5H122.17ZM122.218 28.724H119.038V23.576H122.218C123.898 23.576 124.846 24.968 124.846 26.144C124.846 27.32 123.898 28.712 122.218 28.712V28.724ZM136.066 26.576C134.446 26.576 132.766 27.296 132.07 28.868L134.062 29.696C134.482 28.868 135.274 28.592 136.102 28.592C137.254 28.592 138.442 29.288 138.454 30.524V30.68C138.046 30.452 137.182 30.104 136.114 30.104C133.966 30.104 131.794 31.28 131.794 33.476C131.794 35.48 133.546 36.776 135.514 36.776C137.014 36.776 137.854 36.104 138.37 35.312H138.442V36.476H140.602V30.728C140.602 28.064 138.61 26.576 136.042 26.576H136.066ZM135.79 34.796C135.058 34.796 134.038 34.424 134.038 33.524C134.038 32.372 135.31 31.928 136.414 31.928C137.398 31.928 137.866 32.144 138.454 32.432C138.286 33.824 137.086 34.808 135.79 34.808V34.796ZM148.486 26.9L145.918 33.404H145.846L143.182 26.9H140.77L144.766 35.996L142.486 41.048H144.826L150.982 26.9H148.498H148.486ZM128.326 36.5H130.57V21.5H128.326V36.5Z" fill="white"/>
    <path d="M24.8659 23.8042L12.0859 37.3642C12.4819 38.8402 13.8259 39.9202 15.4219 39.9202C16.0579 39.9202 16.6579 39.7522 17.1739 39.4402L17.2099 39.4162L31.5859 31.1242L24.8539 23.7922L24.8659 23.8042Z" fill="#EA4335"/>
    <path d="M37.7901 21.5002H37.7781L31.5741 17.8882L24.5781 24.1162L31.5981 31.1362L37.7781 27.5722C38.8581 26.9842 39.5901 25.8442 39.5901 24.5362C39.5901 23.2282 38.8701 22.0882 37.7901 21.5122V21.5002Z" fill="#FBBC04"/>
    <path d="M12.0848 11.6362C12.0128 11.9242 11.9648 12.2122 11.9648 12.5242V36.4882C11.9648 36.8002 12.0008 37.0882 12.0848 37.3762L25.2968 24.1642L12.0848 11.6362Z" fill="#4285F4"/>
    <path d="M24.9619 24.5001L31.5739 17.8881L17.2099 9.56012C16.6939 9.24812 16.0819 9.06812 15.4219 9.06812C13.8259 9.06812 12.4819 10.1601 12.0859 11.6241L24.9619 24.4881V24.5001Z" fill="#34A853"/>
  </g>
  <defs>
    <clipPath id="clip0_1768_134">
      <rect width="162" height="48" fill="white" transform="translate(0 0.5)"/>
    </clipPath>
  </defs>
</svg>