<svg width="61" height="20" viewBox="0 0 61 20" fill="none" xmlns="http://www.w3.org/2000/svg">
<g id="Frame">
<path id="Vector" d="M22.0924 18.4384L24.9476 1.7068H29.5145L26.6572 18.4384H22.0924ZM43.1561 2.06748C42.2514 1.72851 40.8335 1.36475 39.0631 1.36475C34.5506 1.36475 31.3719 3.63398 31.345 6.88637C31.3194 9.29065 33.6142 10.6318 35.3463 11.4322C37.124 12.2523 37.7215 12.7753 37.7131 13.5077C37.7019 14.6291 36.2936 15.1415 34.981 15.1415C33.1532 15.1415 32.1821 14.8879 30.6823 14.2632L30.0938 13.9974L29.4528 17.743C30.5195 18.21 32.492 18.6146 34.5399 18.6355C39.3404 18.6355 42.4566 16.3923 42.4922 12.9191C42.5093 11.0158 41.2927 9.56731 38.6579 8.37312C37.0617 7.59919 36.0841 7.08261 36.0945 6.29894C36.0945 5.60347 36.9219 4.8597 38.7098 4.8597C40.2032 4.83663 41.2851 5.16184 42.1279 5.50073L42.5371 5.69389L43.1561 2.06748ZM54.9079 1.70654H51.379C50.2858 1.70654 49.4677 2.00458 48.9877 3.09406L42.2054 18.4274H47.0009C47.0009 18.4274 47.7849 16.3656 47.9622 15.913C48.4865 15.913 53.1449 15.9202 53.811 15.9202C53.9476 16.5059 54.3665 18.4274 54.3665 18.4274H58.6042L54.9079 1.70603V1.70654ZM49.309 12.5108C49.6866 11.5468 51.1286 7.83364 51.1286 7.83364C51.1015 7.87825 51.5034 6.86492 51.734 6.23671L52.0426 7.67936C52.0426 7.67936 52.9172 11.6733 53.0999 12.5108H49.309ZM18.2155 1.70654L13.7445 13.1168L13.268 10.798C12.4357 8.12509 9.84243 5.22919 6.94336 3.77936L11.0315 18.4118L15.8633 18.4064L23.0529 1.70637H18.2155" fill="#5F6563"/>
<path id="Vector_2" d="M9.57456 1.70615H2.21063L2.15234 2.05427C7.88132 3.43923 11.6721 6.78615 13.246 10.8073L11.6447 3.11838C11.3683 2.05897 10.5666 1.74282 9.57473 1.70581" fill="#5F6563"/>
</g>
</svg>
