<svg width="368" height="368" viewBox="0 0 368 368" fill="none" xmlns="http://www.w3.org/2000/svg">
<path fill-rule="evenodd" clip-rule="evenodd" d="M183.664 47.2738C220.289 52.989 238.774 90.7659 262.411 119.084C282.598 143.268 311.905 165.913 308.768 197.15C305.729 227.404 269.787 239.533 248.149 261.079C226.418 282.717 213.922 316.02 183.664 321.721C149.736 328.115 112.098 309.734 88.9112 284.36C66.4243 259.752 78.779 230.282 76.5698 197.15C74.094 160.022 46.1808 119.642 68.7578 89.9169C93.0212 57.9712 143.818 41.056 183.664 47.2738Z" fill="#E0F8F3"/>
<path d="M136.719 38.4383C139.325 38.4383 141.438 36.3255 141.438 33.7192C141.438 31.1128 139.325 29 136.719 29C134.113 29 132 31.1128 132 33.7192C132 36.3255 134.113 38.4383 136.719 38.4383Z" fill="#59B8AA" stroke="black" stroke-width="0.380088" stroke-miterlimit="10"/>
<path d="M52.5332 27V36.0649" stroke="black" stroke-width="0.380088" stroke-miterlimit="10"/>
<path d="M57.0649 31.5325H48" stroke="black" stroke-width="0.380088" stroke-miterlimit="10"/>
<path d="M53.7559 294.306V303.371" stroke="black" stroke-width="0.380088" stroke-miterlimit="10"/>
<path d="M58.2895 298.839H49.2246" stroke="black" stroke-width="0.380088" stroke-miterlimit="10"/>
<path d="M341.821 264.641C345.587 264.641 348.641 261.587 348.641 257.821C348.641 254.054 345.587 251 341.821 251C338.054 251 335 254.054 335 257.821C335 261.587 338.054 264.641 341.821 264.641Z" fill="#59B8AA" stroke="black" stroke-width="0.380088" stroke-miterlimit="10"/>
<path d="M338.003 258.146C337.058 256.796 336.645 255.08 336.788 253.427C335.679 254.619 335 256.208 335 257.964C335 261.65 337.991 264.641 341.678 264.641C344.2 264.641 346.389 263.239 347.521 261.177C344.144 262.091 339.922 260.891 338.003 258.146Z" fill="black"/>
<path d="M344.669 257.213C346.117 257.213 347.29 256.039 347.29 254.591C347.29 253.143 346.117 251.969 344.669 251.969C343.221 251.969 342.047 253.143 342.047 254.591C342.047 256.039 343.221 257.213 344.669 257.213Z" fill="white"/>
<path d="M58.8392 125.354C61.801 125.354 64.2019 122.953 64.2019 119.991C64.2019 117.029 61.801 114.628 58.8392 114.628C55.8775 114.628 53.4766 117.029 53.4766 119.991C53.4766 122.953 55.8775 125.354 58.8392 125.354Z" fill="#F3B443" stroke="black" stroke-width="0.380088" stroke-miterlimit="10"/>
<path d="M55.8378 120.247C55.0944 119.185 54.7696 117.836 54.882 116.536C54.0106 117.473 53.4766 118.723 53.4766 120.103C53.4766 123.002 55.8284 125.354 58.7268 125.354C60.7101 125.354 62.431 124.251 63.3211 122.63C60.6664 123.348 57.3463 122.405 55.8378 120.247Z" fill="black"/>
<path d="M61.0789 119.513C62.2174 119.513 63.1403 118.59 63.1403 117.452C63.1403 116.313 62.2174 115.39 61.0789 115.39C59.9405 115.39 59.0176 116.313 59.0176 117.452C59.0176 118.59 59.9405 119.513 61.0789 119.513Z" fill="white"/>
<path d="M132.376 351.753C134.241 351.753 135.753 350.241 135.753 348.377C135.753 346.512 134.241 345 132.376 345C130.512 345 129 346.512 129 348.377C129 350.241 130.512 351.753 132.376 351.753Z" fill="#F3B443" stroke="black" stroke-width="0.380088" stroke-miterlimit="10"/>
<path d="M130.487 348.538C130.019 347.869 129.814 347.019 129.885 346.201C129.336 346.791 129 347.578 129 348.447C129 350.272 130.481 351.753 132.306 351.753C133.554 351.753 134.638 351.059 135.198 350.038C133.527 350.49 131.437 349.896 130.487 348.538Z" fill="black"/>
<path d="M133.786 348.076C134.503 348.076 135.084 347.494 135.084 346.778C135.084 346.061 134.503 345.48 133.786 345.48C133.069 345.48 132.488 346.061 132.488 346.778C132.488 347.494 133.069 348.076 133.786 348.076Z" fill="white"/>
<path d="M78 73C78 64.1634 85.1634 57 94 57H275C283.837 57 291 64.1634 291 73V164C291 172.837 283.837 180 275 180H94C85.1634 180 78 172.837 78 164V73Z" fill="#FBFDFC"/>
<path d="M159.152 86V76.523H163.793C164.764 76.523 165.5 76.7483 166.003 77.199C166.514 77.6497 166.77 78.2347 166.77 78.954C166.77 79.4393 166.64 79.8683 166.38 80.241C166.12 80.6137 165.713 80.8953 165.158 81.086C165.773 81.242 166.241 81.5237 166.562 81.931C166.883 82.3383 167.043 82.8193 167.043 83.374C167.043 84.1713 166.744 84.8083 166.146 85.285C165.557 85.7617 164.746 86 163.715 86H159.152ZM163.416 78.044H160.959V80.436H163.416C163.936 80.436 164.309 80.3277 164.534 80.111C164.768 79.8943 164.885 79.604 164.885 79.24C164.885 78.8327 164.751 78.5337 164.482 78.343C164.213 78.1437 163.858 78.044 163.416 78.044ZM163.455 81.879H160.959V84.466H163.455C164.556 84.466 165.106 84.0327 165.106 83.166C165.106 82.7587 164.972 82.4423 164.703 82.217C164.443 81.9917 164.027 81.879 163.455 81.879ZM170.509 86.13C169.737 86.13 169.131 85.9393 168.689 85.558C168.255 85.168 168.039 84.661 168.039 84.037C168.039 83.3523 168.255 82.8323 168.689 82.477C169.131 82.113 169.685 81.8703 170.353 81.749L171.952 81.463C172.272 81.411 172.489 81.32 172.602 81.19C172.714 81.06 172.771 80.891 172.771 80.683C172.771 80.4057 172.671 80.1847 172.472 80.02C172.272 79.8553 171.947 79.773 171.497 79.773C171.011 79.773 170.634 79.877 170.366 80.085C170.097 80.2843 169.967 80.592 169.976 81.008L168.312 80.813C168.312 80.0677 168.602 79.487 169.183 79.071C169.772 78.655 170.552 78.447 171.523 78.447C172.545 78.447 173.304 78.6507 173.798 79.058C174.3 79.4567 174.552 80.0287 174.552 80.774V84.154C174.552 84.388 174.595 84.544 174.682 84.622C174.777 84.6913 174.885 84.726 175.007 84.726C175.111 84.726 175.18 84.713 175.215 84.687H175.293V85.948C175.189 86 175.05 86.039 174.877 86.065C174.703 86.091 174.556 86.104 174.435 86.104C174.027 86.104 173.698 86.0173 173.447 85.844C173.195 85.662 173.048 85.389 173.005 85.025L172.992 84.843C172.792 85.2417 172.467 85.558 172.017 85.792C171.575 86.0173 171.072 86.13 170.509 86.13ZM171.042 84.804C171.492 84.804 171.874 84.7043 172.186 84.505C172.506 84.297 172.714 84.0067 172.81 83.634V82.451C172.714 82.4943 172.593 82.5377 172.446 82.581C172.307 82.6157 172.138 82.6503 171.939 82.685L170.938 82.88C170.522 82.9667 170.236 83.101 170.08 83.283C169.932 83.465 169.859 83.6643 169.859 83.881C169.859 84.1843 169.967 84.414 170.184 84.57C170.4 84.726 170.686 84.804 171.042 84.804ZM176.325 86V75.73H178.106V86H176.325ZM181.884 86.13C181.112 86.13 180.506 85.9393 180.064 85.558C179.63 85.168 179.414 84.661 179.414 84.037C179.414 83.3523 179.63 82.8323 180.064 82.477C180.506 82.113 181.06 81.8703 181.728 81.749L183.327 81.463C183.647 81.411 183.864 81.32 183.977 81.19C184.089 81.06 184.146 80.891 184.146 80.683C184.146 80.4057 184.046 80.1847 183.847 80.02C183.647 79.8553 183.322 79.773 182.872 79.773C182.386 79.773 182.009 79.877 181.741 80.085C181.472 80.2843 181.342 80.592 181.351 81.008L179.687 80.813C179.687 80.0677 179.977 79.487 180.558 79.071C181.147 78.655 181.927 78.447 182.898 78.447C183.92 78.447 184.679 78.6507 185.173 79.058C185.675 79.4567 185.927 80.0287 185.927 80.774V84.154C185.927 84.388 185.97 84.544 186.057 84.622C186.152 84.6913 186.26 84.726 186.382 84.726C186.486 84.726 186.555 84.713 186.59 84.687H186.668V85.948C186.564 86 186.425 86.039 186.252 86.065C186.078 86.091 185.931 86.104 185.81 86.104C185.402 86.104 185.073 86.0173 184.822 85.844C184.57 85.662 184.423 85.389 184.38 85.025L184.367 84.843C184.167 85.2417 183.842 85.558 183.392 85.792C182.95 86.0173 182.447 86.13 181.884 86.13ZM182.417 84.804C182.867 84.804 183.249 84.7043 183.561 84.505C183.881 84.297 184.089 84.0067 184.185 83.634V82.451C184.089 82.4943 183.968 82.5377 183.821 82.581C183.682 82.6157 183.513 82.6503 183.314 82.685L182.313 82.88C181.897 82.9667 181.611 83.101 181.455 83.283C181.307 83.465 181.234 83.6643 181.234 83.881C181.234 84.1843 181.342 84.414 181.559 84.57C181.775 84.726 182.061 84.804 182.417 84.804ZM187.7 86V78.577H189.351L189.429 79.617C189.723 79.2097 190.057 78.915 190.43 78.733C190.802 78.5423 191.24 78.447 191.743 78.447C192.497 78.447 193.103 78.6637 193.563 79.097C194.031 79.5217 194.265 80.1587 194.265 81.008V86H192.471V81.268C192.471 80.8693 192.354 80.5617 192.12 80.345C191.894 80.1197 191.565 80.007 191.132 80.007C190.69 80.007 190.308 80.15 189.988 80.436C189.676 80.722 189.511 81.112 189.494 81.606V86H187.7ZM199.203 86.117C198.466 86.117 197.825 85.961 197.279 85.649C196.733 85.3283 196.308 84.882 196.005 84.31C195.71 83.7293 195.563 83.0533 195.563 82.282C195.563 81.5107 195.714 80.839 196.018 80.267C196.321 79.6863 196.746 79.24 197.292 78.928C197.838 78.6073 198.479 78.447 199.216 78.447C200.178 78.447 200.945 78.6853 201.517 79.162C202.089 79.6387 202.418 80.267 202.505 81.047L200.802 81.281C200.758 80.813 200.589 80.4707 200.295 80.254C200.009 80.0287 199.645 79.916 199.203 79.916C198.631 79.916 198.18 80.124 197.851 80.54C197.521 80.956 197.357 81.5367 197.357 82.282C197.357 83.0187 197.517 83.5993 197.838 84.024C198.167 84.44 198.622 84.648 199.203 84.648C199.662 84.648 200.039 84.5223 200.334 84.271C200.628 84.0197 200.793 83.673 200.828 83.231L202.544 83.452C202.492 84.0067 202.318 84.4833 202.024 84.882C201.729 85.2807 201.339 85.5883 200.854 85.805C200.368 86.013 199.818 86.117 199.203 86.117ZM207.087 86.13C206.368 86.13 205.731 85.9827 205.176 85.688C204.622 85.3847 204.188 84.947 203.876 84.375C203.564 83.803 203.408 83.1097 203.408 82.295C203.408 81.5237 203.551 80.8477 203.837 80.267C204.132 79.6863 204.552 79.24 205.098 78.928C205.644 78.6073 206.29 78.447 207.035 78.447C207.781 78.447 208.422 78.6117 208.959 78.941C209.497 79.2703 209.895 79.76 210.155 80.41C210.424 81.0513 210.524 81.84 210.454 82.776H205.189C205.259 83.452 205.458 83.946 205.787 84.258C206.117 84.57 206.559 84.726 207.113 84.726C207.581 84.726 207.967 84.622 208.27 84.414C208.574 84.206 208.764 83.9113 208.842 83.53L210.389 83.92C210.242 84.5787 209.869 85.1117 209.271 85.519C208.682 85.9263 207.954 86.13 207.087 86.13ZM207.009 79.812C206.524 79.812 206.125 79.955 205.813 80.241C205.501 80.527 205.302 80.9647 205.215 81.554H208.634C208.643 81.0167 208.5 80.592 208.205 80.28C207.919 79.968 207.521 79.812 207.009 79.812Z" fill="#5F6563"/>
<path d="M106.576 140.352C104.869 140.224 103.429 139.829 102.256 139.168C101.083 138.507 100.123 137.664 99.376 136.64L101.68 134.432C102.405 135.307 103.173 135.989 103.984 136.48C104.795 136.949 105.712 137.237 106.736 137.344V130.016L106 129.888C104.933 129.696 104.027 129.408 103.28 129.024C102.533 128.64 101.925 128.171 101.456 127.616C100.987 127.061 100.645 126.453 100.432 125.792C100.219 125.109 100.112 124.384 100.112 123.616C100.112 121.803 100.677 120.363 101.808 119.296C102.939 118.208 104.528 117.557 106.576 117.344V114.048H109.264V117.344C110.672 117.493 111.888 117.845 112.912 118.4C113.936 118.955 114.821 119.712 115.568 120.672L113.232 122.784C112.72 122.123 112.123 121.589 111.44 121.184C110.779 120.779 110 120.523 109.104 120.416V127.2L109.968 127.328C111.035 127.52 111.941 127.808 112.688 128.192C113.435 128.576 114.043 129.045 114.512 129.6C115.003 130.133 115.355 130.741 115.568 131.424C115.781 132.107 115.888 132.832 115.888 133.6C115.888 135.435 115.312 136.939 114.16 138.112C113.029 139.285 111.397 140 109.264 140.256V143.616H106.576V140.352ZM103.504 123.52C103.504 124.416 103.749 125.12 104.24 125.632C104.752 126.123 105.584 126.496 106.736 126.752V120.352C104.581 120.608 103.504 121.664 103.504 123.52ZM112.496 133.76C112.496 132.8 112.229 132.075 111.696 131.584C111.184 131.072 110.32 130.699 109.104 130.464V137.312C110.213 137.141 111.056 136.757 111.632 136.16C112.208 135.563 112.496 134.763 112.496 133.76ZM120.004 140V137.024H126.276V120.288H126.02L120.836 125.824L118.628 123.84L124.324 117.664H129.86V137.024H135.267V140H120.004ZM144.183 135.136H149.143L145.175 144.64H142.455L144.183 135.136ZM171.915 120.768H161.771L161.195 128.704H161.451C161.963 127.829 162.581 127.136 163.307 126.624C164.032 126.091 165.024 125.824 166.283 125.824C167.243 125.824 168.128 125.984 168.939 126.304C169.771 126.624 170.485 127.083 171.083 127.68C171.701 128.277 172.181 129.013 172.523 129.888C172.885 130.741 173.067 131.712 173.067 132.8C173.067 133.909 172.885 134.933 172.523 135.872C172.16 136.789 171.637 137.589 170.955 138.272C170.272 138.933 169.429 139.456 168.427 139.84C167.424 140.203 166.283 140.384 165.003 140.384C164 140.384 163.104 140.267 162.315 140.032C161.547 139.819 160.853 139.531 160.235 139.168C159.637 138.784 159.115 138.357 158.667 137.888C158.219 137.397 157.824 136.896 157.483 136.384L160.107 134.336C160.384 134.763 160.672 135.168 160.971 135.552C161.291 135.915 161.643 136.235 162.027 136.512C162.411 136.789 162.848 137.003 163.339 137.152C163.851 137.301 164.427 137.376 165.067 137.376C166.453 137.376 167.509 137.003 168.235 136.256C168.96 135.488 169.323 134.453 169.323 133.152V132.896C169.323 131.595 168.949 130.581 168.203 129.856C167.477 129.131 166.432 128.768 165.067 128.768C164.064 128.768 163.275 128.949 162.699 129.312C162.123 129.675 161.621 130.08 161.195 130.528L158.219 130.112L159.051 117.664H171.915V120.768ZM184.35 140.384C182.942 140.384 181.715 140.128 180.67 139.616C179.646 139.083 178.793 138.325 178.11 137.344C177.449 136.363 176.958 135.157 176.638 133.728C176.318 132.299 176.158 130.667 176.158 128.832C176.158 127.019 176.318 125.397 176.638 123.968C176.958 122.517 177.449 121.301 178.11 120.32C178.793 119.339 179.646 118.592 180.67 118.08C181.715 117.547 182.942 117.28 184.35 117.28C185.758 117.28 186.974 117.547 187.998 118.08C189.043 118.592 189.897 119.339 190.558 120.32C191.241 121.301 191.742 122.517 192.062 123.968C192.382 125.397 192.542 127.019 192.542 128.832C192.542 130.667 192.382 132.299 192.062 133.728C191.742 135.157 191.241 136.363 190.558 137.344C189.897 138.325 189.043 139.083 187.998 139.616C186.974 140.128 185.758 140.384 184.35 140.384ZM184.35 137.44C185.971 137.44 187.123 136.843 187.806 135.648C188.51 134.432 188.862 132.8 188.862 130.752V126.912C188.862 124.864 188.51 123.243 187.806 122.048C187.123 120.832 185.971 120.224 184.35 120.224C183.539 120.224 182.846 120.384 182.27 120.704C181.694 121.003 181.225 121.451 180.862 122.048C180.499 122.624 180.233 123.328 180.062 124.16C179.913 124.971 179.838 125.888 179.838 126.912V130.752C179.838 131.776 179.913 132.704 180.062 133.536C180.233 134.347 180.499 135.051 180.862 135.648C181.225 136.224 181.694 136.672 182.27 136.992C182.846 137.291 183.539 137.44 184.35 137.44ZM184.35 130.72C183.603 130.72 183.081 130.571 182.782 130.272C182.505 129.973 182.366 129.611 182.366 129.184V128.48C182.366 128.053 182.505 127.691 182.782 127.392C183.081 127.093 183.603 126.944 184.35 126.944C185.097 126.944 185.609 127.093 185.886 127.392C186.185 127.691 186.334 128.053 186.334 128.48V129.184C186.334 129.611 186.185 129.973 185.886 130.272C185.609 130.571 185.097 130.72 184.35 130.72ZM203.538 140.384C202.13 140.384 200.903 140.128 199.858 139.616C198.834 139.083 197.98 138.325 197.298 137.344C196.636 136.363 196.146 135.157 195.826 133.728C195.506 132.299 195.346 130.667 195.346 128.832C195.346 127.019 195.506 125.397 195.826 123.968C196.146 122.517 196.636 121.301 197.298 120.32C197.98 119.339 198.834 118.592 199.858 118.08C200.903 117.547 202.13 117.28 203.538 117.28C204.946 117.28 206.162 117.547 207.186 118.08C208.231 118.592 209.084 119.339 209.746 120.32C210.428 121.301 210.93 122.517 211.25 123.968C211.57 125.397 211.73 127.019 211.73 128.832C211.73 130.667 211.57 132.299 211.25 133.728C210.93 135.157 210.428 136.363 209.746 137.344C209.084 138.325 208.231 139.083 207.186 139.616C206.162 140.128 204.946 140.384 203.538 140.384ZM203.538 137.44C205.159 137.44 206.311 136.843 206.994 135.648C207.698 134.432 208.05 132.8 208.05 130.752V126.912C208.05 124.864 207.698 123.243 206.994 122.048C206.311 120.832 205.159 120.224 203.538 120.224C202.727 120.224 202.034 120.384 201.458 120.704C200.882 121.003 200.412 121.451 200.05 122.048C199.687 122.624 199.42 123.328 199.25 124.16C199.1 124.971 199.026 125.888 199.026 126.912V130.752C199.026 131.776 199.1 132.704 199.25 133.536C199.42 134.347 199.687 135.051 200.05 135.648C200.412 136.224 200.882 136.672 201.458 136.992C202.034 137.291 202.727 137.44 203.538 137.44ZM203.538 130.72C202.791 130.72 202.268 130.571 201.97 130.272C201.692 129.973 201.554 129.611 201.554 129.184V128.48C201.554 128.053 201.692 127.691 201.97 127.392C202.268 127.093 202.791 126.944 203.538 126.944C204.284 126.944 204.796 127.093 205.074 127.392C205.372 127.691 205.522 128.053 205.522 128.48V129.184C205.522 129.611 205.372 129.973 205.074 130.272C204.796 130.571 204.284 130.72 203.538 130.72ZM222.725 140.32C221.701 140.32 220.976 140.107 220.549 139.68C220.144 139.253 219.941 138.731 219.941 138.112V137.28C219.941 136.661 220.144 136.139 220.549 135.712C220.976 135.285 221.701 135.072 222.725 135.072C223.749 135.072 224.464 135.285 224.869 135.712C225.296 136.139 225.509 136.661 225.509 137.28V138.112C225.509 138.731 225.296 139.253 224.869 139.68C224.464 140.107 223.749 140.32 222.725 140.32ZM241.913 140.384C240.505 140.384 239.278 140.128 238.233 139.616C237.209 139.083 236.355 138.325 235.673 137.344C235.011 136.363 234.521 135.157 234.201 133.728C233.881 132.299 233.721 130.667 233.721 128.832C233.721 127.019 233.881 125.397 234.201 123.968C234.521 122.517 235.011 121.301 235.673 120.32C236.355 119.339 237.209 118.592 238.233 118.08C239.278 117.547 240.505 117.28 241.913 117.28C243.321 117.28 244.537 117.547 245.561 118.08C246.606 118.592 247.459 119.339 248.121 120.32C248.803 121.301 249.305 122.517 249.625 123.968C249.945 125.397 250.105 127.019 250.105 128.832C250.105 130.667 249.945 132.299 249.625 133.728C249.305 135.157 248.803 136.363 248.121 137.344C247.459 138.325 246.606 139.083 245.561 139.616C244.537 140.128 243.321 140.384 241.913 140.384ZM241.913 137.44C243.534 137.44 244.686 136.843 245.369 135.648C246.073 134.432 246.425 132.8 246.425 130.752V126.912C246.425 124.864 246.073 123.243 245.369 122.048C244.686 120.832 243.534 120.224 241.913 120.224C241.102 120.224 240.409 120.384 239.833 120.704C239.257 121.003 238.787 121.451 238.425 122.048C238.062 122.624 237.795 123.328 237.625 124.16C237.475 124.971 237.401 125.888 237.401 126.912V130.752C237.401 131.776 237.475 132.704 237.625 133.536C237.795 134.347 238.062 135.051 238.425 135.648C238.787 136.224 239.257 136.672 239.833 136.992C240.409 137.291 241.102 137.44 241.913 137.44ZM241.913 130.72C241.166 130.72 240.643 130.571 240.345 130.272C240.067 129.973 239.929 129.611 239.929 129.184V128.48C239.929 128.053 240.067 127.691 240.345 127.392C240.643 127.093 241.166 126.944 241.913 126.944C242.659 126.944 243.171 127.093 243.449 127.392C243.747 127.691 243.897 128.053 243.897 128.48V129.184C243.897 129.611 243.747 129.973 243.449 130.272C243.171 130.571 242.659 130.72 241.913 130.72ZM261.1 140.384C259.692 140.384 258.465 140.128 257.42 139.616C256.396 139.083 255.543 138.325 254.86 137.344C254.199 136.363 253.708 135.157 253.388 133.728C253.068 132.299 252.908 130.667 252.908 128.832C252.908 127.019 253.068 125.397 253.388 123.968C253.708 122.517 254.199 121.301 254.86 120.32C255.543 119.339 256.396 118.592 257.42 118.08C258.465 117.547 259.692 117.28 261.1 117.28C262.508 117.28 263.724 117.547 264.748 118.08C265.793 118.592 266.647 119.339 267.308 120.32C267.991 121.301 268.492 122.517 268.812 123.968C269.132 125.397 269.292 127.019 269.292 128.832C269.292 130.667 269.132 132.299 268.812 133.728C268.492 135.157 267.991 136.363 267.308 137.344C266.647 138.325 265.793 139.083 264.748 139.616C263.724 140.128 262.508 140.384 261.1 140.384ZM261.1 137.44C262.721 137.44 263.873 136.843 264.556 135.648C265.26 134.432 265.612 132.8 265.612 130.752V126.912C265.612 124.864 265.26 123.243 264.556 122.048C263.873 120.832 262.721 120.224 261.1 120.224C260.289 120.224 259.596 120.384 259.02 120.704C258.444 121.003 257.975 121.451 257.612 122.048C257.249 122.624 256.983 123.328 256.812 124.16C256.663 124.971 256.588 125.888 256.588 126.912V130.752C256.588 131.776 256.663 132.704 256.812 133.536C256.983 134.347 257.249 135.051 257.612 135.648C257.975 136.224 258.444 136.672 259.02 136.992C259.596 137.291 260.289 137.44 261.1 137.44ZM261.1 130.72C260.353 130.72 259.831 130.571 259.532 130.272C259.255 129.973 259.116 129.611 259.116 129.184V128.48C259.116 128.053 259.255 127.691 259.532 127.392C259.831 127.093 260.353 126.944 261.1 126.944C261.847 126.944 262.359 127.093 262.636 127.392C262.935 127.691 263.084 128.053 263.084 128.48V129.184C263.084 129.611 262.935 129.973 262.636 130.272C262.359 130.571 261.847 130.72 261.1 130.72Z" fill="#1A211E"/>
<path d="M78 204C78 195.163 85.1634 188 94 188H275C283.837 188 291 195.163 291 204V295C291 303.837 283.837 311 275 311H94C85.1634 311 78 303.837 78 295V204Z" fill="#FBFDFC"/>
<path d="M151.912 237.13C150.994 237.13 150.205 236.939 149.546 236.558C148.888 236.168 148.381 235.609 148.025 234.881C147.67 234.153 147.492 233.278 147.492 232.255C147.492 231.241 147.67 230.374 148.025 229.655C148.381 228.927 148.888 228.372 149.546 227.991C150.214 227.601 151.015 227.406 151.951 227.406C152.757 227.406 153.459 227.545 154.057 227.822C154.655 228.099 155.128 228.489 155.474 228.992C155.83 229.486 156.051 230.062 156.137 230.721L154.291 230.994C154.187 230.353 153.932 229.867 153.524 229.538C153.117 229.2 152.593 229.031 151.951 229.031C151.119 229.031 150.487 229.313 150.053 229.876C149.629 230.431 149.416 231.224 149.416 232.255C149.416 233.312 149.637 234.118 150.079 234.673C150.521 235.219 151.141 235.492 151.938 235.492C152.632 235.492 153.178 235.319 153.576 234.972C153.984 234.625 154.235 234.149 154.33 233.542L156.163 233.737C156.085 234.456 155.856 235.072 155.474 235.583C155.093 236.086 154.599 236.471 153.992 236.74C153.386 237 152.692 237.13 151.912 237.13ZM157.428 237V229.577H159.053L159.131 230.734C159.529 229.902 160.123 229.486 160.912 229.486C161.172 229.486 161.38 229.512 161.536 229.564V231.241H161.458C161.31 231.18 161.12 231.15 160.886 231.15C160.418 231.15 160.036 231.28 159.742 231.54C159.456 231.791 159.282 232.142 159.222 232.593V237H157.428ZM165.656 237.13C164.937 237.13 164.3 236.983 163.745 236.688C163.19 236.385 162.757 235.947 162.445 235.375C162.133 234.803 161.977 234.11 161.977 233.295C161.977 232.524 162.12 231.848 162.406 231.267C162.701 230.686 163.121 230.24 163.667 229.928C164.213 229.607 164.859 229.447 165.604 229.447C166.349 229.447 166.991 229.612 167.528 229.941C168.065 230.27 168.464 230.76 168.724 231.41C168.993 232.051 169.092 232.84 169.023 233.776H163.758C163.827 234.452 164.027 234.946 164.356 235.258C164.685 235.57 165.127 235.726 165.682 235.726C166.15 235.726 166.536 235.622 166.839 235.414C167.142 235.206 167.333 234.911 167.411 234.53L168.958 234.92C168.811 235.579 168.438 236.112 167.84 236.519C167.251 236.926 166.523 237.13 165.656 237.13ZM165.578 230.812C165.093 230.812 164.694 230.955 164.382 231.241C164.07 231.527 163.871 231.965 163.784 232.554H167.203C167.212 232.017 167.069 231.592 166.774 231.28C166.488 230.968 166.089 230.812 165.578 230.812ZM169.988 233.321C169.988 232.532 170.118 231.848 170.378 231.267C170.638 230.686 171.006 230.24 171.483 229.928C171.968 229.607 172.536 229.447 173.186 229.447C174.243 229.447 174.997 229.846 175.448 230.643V226.73H177.242V237H175.578L175.487 235.856C175.288 236.255 174.976 236.567 174.551 236.792C174.135 237.017 173.663 237.13 173.134 237.13C172.493 237.13 171.934 236.974 171.457 236.662C170.989 236.35 170.625 235.912 170.365 235.349C170.114 234.777 169.988 234.101 169.988 233.321ZM171.808 233.308C171.808 234.062 171.964 234.643 172.276 235.05C172.588 235.449 173.03 235.648 173.602 235.648C174.174 235.648 174.625 235.466 174.954 235.102C175.283 234.738 175.448 234.235 175.448 233.594V233.022C175.448 232.363 175.283 231.852 174.954 231.488C174.633 231.115 174.187 230.929 173.615 230.929C173.034 230.929 172.588 231.137 172.276 231.553C171.964 231.96 171.808 232.545 171.808 233.308ZM178.972 237V229.577H180.753V237H178.972ZM178.985 228.472V226.704H180.753V228.472H178.985ZM184.633 237.104C183.498 237.104 182.93 236.584 182.93 235.544V230.864L181.968 230.89V229.577L182.93 229.603V227.588L184.698 227.458V229.603L185.92 229.577V230.89L184.698 230.851V234.92C184.698 235.197 184.733 235.384 184.802 235.479C184.88 235.566 185.04 235.609 185.283 235.609C185.413 235.609 185.53 235.6 185.634 235.583C185.747 235.566 185.838 235.544 185.907 235.518V236.922C185.716 236.983 185.504 237.026 185.27 237.052C185.045 237.087 184.832 237.104 184.633 237.104ZM190.109 237V227.523H191.916V235.44H196.882V237H190.109ZM197.951 237V229.577H199.732V237H197.951ZM197.964 228.472V226.704H199.732V228.472H197.964ZM201.747 237V229.577H203.359L203.476 230.643C203.727 230.227 204.039 229.924 204.412 229.733C204.793 229.542 205.192 229.447 205.608 229.447C206.102 229.447 206.548 229.564 206.947 229.798C207.346 230.032 207.645 230.383 207.844 230.851C208.061 230.409 208.373 230.067 208.78 229.824C209.196 229.573 209.66 229.447 210.171 229.447C210.977 229.447 211.597 229.677 212.03 230.136C212.463 230.595 212.68 231.206 212.68 231.969V237H210.886V232.385C210.886 231.96 210.782 231.627 210.574 231.384C210.375 231.133 210.071 231.007 209.664 231.007C209.205 231.007 208.828 231.154 208.533 231.449C208.247 231.735 208.104 232.155 208.104 232.71V237H206.31V232.463C206.31 232.03 206.21 231.679 206.011 231.41C205.82 231.141 205.508 231.007 205.075 231.007C204.607 231.007 204.234 231.163 203.957 231.475C203.68 231.787 203.541 232.186 203.541 232.671V237H201.747ZM214.684 237V229.577H216.465V237H214.684ZM214.697 228.472V226.704H216.465V228.472H214.697ZM220.345 237.104C219.21 237.104 218.642 236.584 218.642 235.544V230.864L217.68 230.89V229.577L218.642 229.603V227.588L220.41 227.458V229.603L221.632 229.577V230.89L220.41 230.851V234.92C220.41 235.197 220.445 235.384 220.514 235.479C220.592 235.566 220.752 235.609 220.995 235.609C221.125 235.609 221.242 235.6 221.346 235.583C221.459 235.566 221.55 235.544 221.619 235.518V236.922C221.428 236.983 221.216 237.026 220.982 237.052C220.757 237.087 220.544 237.104 220.345 237.104Z" fill="#5F6563"/>
<path d="M106.576 291.352C104.869 291.224 103.429 290.829 102.256 290.168C101.083 289.507 100.123 288.664 99.376 287.64L101.68 285.432C102.405 286.307 103.173 286.989 103.984 287.48C104.795 287.949 105.712 288.237 106.736 288.344V281.016L106 280.888C104.933 280.696 104.027 280.408 103.28 280.024C102.533 279.64 101.925 279.171 101.456 278.616C100.987 278.061 100.645 277.453 100.432 276.792C100.219 276.109 100.112 275.384 100.112 274.616C100.112 272.803 100.677 271.363 101.808 270.296C102.939 269.208 104.528 268.557 106.576 268.344V265.048H109.264V268.344C110.672 268.493 111.888 268.845 112.912 269.4C113.936 269.955 114.821 270.712 115.568 271.672L113.232 273.784C112.72 273.123 112.123 272.589 111.44 272.184C110.779 271.779 110 271.523 109.104 271.416V278.2L109.968 278.328C111.035 278.52 111.941 278.808 112.688 279.192C113.435 279.576 114.043 280.045 114.512 280.6C115.003 281.133 115.355 281.741 115.568 282.424C115.781 283.107 115.888 283.832 115.888 284.6C115.888 286.435 115.312 287.939 114.16 289.112C113.029 290.285 111.397 291 109.264 291.256V294.616H106.576V291.352ZM103.504 274.52C103.504 275.416 103.749 276.12 104.24 276.632C104.752 277.123 105.584 277.496 106.736 277.752V271.352C104.581 271.608 103.504 272.664 103.504 274.52ZM112.496 284.76C112.496 283.8 112.229 283.075 111.696 282.584C111.184 282.072 110.32 281.699 109.104 281.464V288.312C110.213 288.141 111.056 287.757 111.632 287.16C112.208 286.563 112.496 285.763 112.496 284.76ZM120.004 291V288.024H126.276V271.288H126.02L120.836 276.824L118.628 274.84L124.324 268.664H129.86V288.024H135.267V291H120.004ZM144.183 286.136H149.143L145.175 295.64H142.455L144.183 286.136ZM173.003 291H157.579V287.576L164.875 281.208C166.027 280.184 166.912 279.213 167.531 278.296C168.171 277.379 168.491 276.408 168.491 275.384V275.032C168.491 273.859 168.171 272.963 167.531 272.344C166.891 271.704 165.963 271.384 164.747 271.384C163.509 271.384 162.549 271.715 161.867 272.376C161.205 273.037 160.725 273.88 160.427 274.904L157.291 273.72C157.504 273.016 157.813 272.344 158.219 271.704C158.624 271.043 159.136 270.456 159.755 269.944C160.395 269.432 161.141 269.027 161.995 268.728C162.869 268.429 163.872 268.28 165.003 268.28C166.155 268.28 167.179 268.451 168.075 268.792C168.992 269.112 169.76 269.56 170.379 270.136C170.997 270.712 171.467 271.405 171.787 272.216C172.107 273.005 172.267 273.88 172.267 274.84C172.267 275.736 172.128 276.568 171.851 277.336C171.595 278.083 171.221 278.808 170.731 279.512C170.261 280.195 169.696 280.856 169.035 281.496C168.373 282.136 167.648 282.776 166.859 283.416L161.451 287.96H173.003V291ZM184.35 291.384C182.942 291.384 181.715 291.128 180.67 290.616C179.646 290.083 178.793 289.325 178.11 288.344C177.449 287.363 176.958 286.157 176.638 284.728C176.318 283.299 176.158 281.667 176.158 279.832C176.158 278.019 176.318 276.397 176.638 274.968C176.958 273.517 177.449 272.301 178.11 271.32C178.793 270.339 179.646 269.592 180.67 269.08C181.715 268.547 182.942 268.28 184.35 268.28C185.758 268.28 186.974 268.547 187.998 269.08C189.043 269.592 189.897 270.339 190.558 271.32C191.241 272.301 191.742 273.517 192.062 274.968C192.382 276.397 192.542 278.019 192.542 279.832C192.542 281.667 192.382 283.299 192.062 284.728C191.742 286.157 191.241 287.363 190.558 288.344C189.897 289.325 189.043 290.083 187.998 290.616C186.974 291.128 185.758 291.384 184.35 291.384ZM184.35 288.44C185.971 288.44 187.123 287.843 187.806 286.648C188.51 285.432 188.862 283.8 188.862 281.752V277.912C188.862 275.864 188.51 274.243 187.806 273.048C187.123 271.832 185.971 271.224 184.35 271.224C183.539 271.224 182.846 271.384 182.27 271.704C181.694 272.003 181.225 272.451 180.862 273.048C180.499 273.624 180.233 274.328 180.062 275.16C179.913 275.971 179.838 276.888 179.838 277.912V281.752C179.838 282.776 179.913 283.704 180.062 284.536C180.233 285.347 180.499 286.051 180.862 286.648C181.225 287.224 181.694 287.672 182.27 287.992C182.846 288.291 183.539 288.44 184.35 288.44ZM184.35 281.72C183.603 281.72 183.081 281.571 182.782 281.272C182.505 280.973 182.366 280.611 182.366 280.184V279.48C182.366 279.053 182.505 278.691 182.782 278.392C183.081 278.093 183.603 277.944 184.35 277.944C185.097 277.944 185.609 278.093 185.886 278.392C186.185 278.691 186.334 279.053 186.334 279.48V280.184C186.334 280.611 186.185 280.973 185.886 281.272C185.609 281.571 185.097 281.72 184.35 281.72ZM203.538 291.384C202.13 291.384 200.903 291.128 199.858 290.616C198.834 290.083 197.98 289.325 197.298 288.344C196.636 287.363 196.146 286.157 195.826 284.728C195.506 283.299 195.346 281.667 195.346 279.832C195.346 278.019 195.506 276.397 195.826 274.968C196.146 273.517 196.636 272.301 197.298 271.32C197.98 270.339 198.834 269.592 199.858 269.08C200.903 268.547 202.13 268.28 203.538 268.28C204.946 268.28 206.162 268.547 207.186 269.08C208.231 269.592 209.084 270.339 209.746 271.32C210.428 272.301 210.93 273.517 211.25 274.968C211.57 276.397 211.73 278.019 211.73 279.832C211.73 281.667 211.57 283.299 211.25 284.728C210.93 286.157 210.428 287.363 209.746 288.344C209.084 289.325 208.231 290.083 207.186 290.616C206.162 291.128 204.946 291.384 203.538 291.384ZM203.538 288.44C205.159 288.44 206.311 287.843 206.994 286.648C207.698 285.432 208.05 283.8 208.05 281.752V277.912C208.05 275.864 207.698 274.243 206.994 273.048C206.311 271.832 205.159 271.224 203.538 271.224C202.727 271.224 202.034 271.384 201.458 271.704C200.882 272.003 200.412 272.451 200.05 273.048C199.687 273.624 199.42 274.328 199.25 275.16C199.1 275.971 199.026 276.888 199.026 277.912V281.752C199.026 282.776 199.1 283.704 199.25 284.536C199.42 285.347 199.687 286.051 200.05 286.648C200.412 287.224 200.882 287.672 201.458 287.992C202.034 288.291 202.727 288.44 203.538 288.44ZM203.538 281.72C202.791 281.72 202.268 281.571 201.97 281.272C201.692 280.973 201.554 280.611 201.554 280.184V279.48C201.554 279.053 201.692 278.691 201.97 278.392C202.268 278.093 202.791 277.944 203.538 277.944C204.284 277.944 204.796 278.093 205.074 278.392C205.372 278.691 205.522 279.053 205.522 279.48V280.184C205.522 280.611 205.372 280.973 205.074 281.272C204.796 281.571 204.284 281.72 203.538 281.72ZM222.725 291.32C221.701 291.32 220.976 291.107 220.549 290.68C220.144 290.253 219.941 289.731 219.941 289.112V288.28C219.941 287.661 220.144 287.139 220.549 286.712C220.976 286.285 221.701 286.072 222.725 286.072C223.749 286.072 224.464 286.285 224.869 286.712C225.296 287.139 225.509 287.661 225.509 288.28V289.112C225.509 289.731 225.296 290.253 224.869 290.68C224.464 291.107 223.749 291.32 222.725 291.32ZM241.913 291.384C240.505 291.384 239.278 291.128 238.233 290.616C237.209 290.083 236.355 289.325 235.673 288.344C235.011 287.363 234.521 286.157 234.201 284.728C233.881 283.299 233.721 281.667 233.721 279.832C233.721 278.019 233.881 276.397 234.201 274.968C234.521 273.517 235.011 272.301 235.673 271.32C236.355 270.339 237.209 269.592 238.233 269.08C239.278 268.547 240.505 268.28 241.913 268.28C243.321 268.28 244.537 268.547 245.561 269.08C246.606 269.592 247.459 270.339 248.121 271.32C248.803 272.301 249.305 273.517 249.625 274.968C249.945 276.397 250.105 278.019 250.105 279.832C250.105 281.667 249.945 283.299 249.625 284.728C249.305 286.157 248.803 287.363 248.121 288.344C247.459 289.325 246.606 290.083 245.561 290.616C244.537 291.128 243.321 291.384 241.913 291.384ZM241.913 288.44C243.534 288.44 244.686 287.843 245.369 286.648C246.073 285.432 246.425 283.8 246.425 281.752V277.912C246.425 275.864 246.073 274.243 245.369 273.048C244.686 271.832 243.534 271.224 241.913 271.224C241.102 271.224 240.409 271.384 239.833 271.704C239.257 272.003 238.787 272.451 238.425 273.048C238.062 273.624 237.795 274.328 237.625 275.16C237.475 275.971 237.401 276.888 237.401 277.912V281.752C237.401 282.776 237.475 283.704 237.625 284.536C237.795 285.347 238.062 286.051 238.425 286.648C238.787 287.224 239.257 287.672 239.833 287.992C240.409 288.291 241.102 288.44 241.913 288.44ZM241.913 281.72C241.166 281.72 240.643 281.571 240.345 281.272C240.067 280.973 239.929 280.611 239.929 280.184V279.48C239.929 279.053 240.067 278.691 240.345 278.392C240.643 278.093 241.166 277.944 241.913 277.944C242.659 277.944 243.171 278.093 243.449 278.392C243.747 278.691 243.897 279.053 243.897 279.48V280.184C243.897 280.611 243.747 280.973 243.449 281.272C243.171 281.571 242.659 281.72 241.913 281.72ZM261.1 291.384C259.692 291.384 258.465 291.128 257.42 290.616C256.396 290.083 255.543 289.325 254.86 288.344C254.199 287.363 253.708 286.157 253.388 284.728C253.068 283.299 252.908 281.667 252.908 279.832C252.908 278.019 253.068 276.397 253.388 274.968C253.708 273.517 254.199 272.301 254.86 271.32C255.543 270.339 256.396 269.592 257.42 269.08C258.465 268.547 259.692 268.28 261.1 268.28C262.508 268.28 263.724 268.547 264.748 269.08C265.793 269.592 266.647 270.339 267.308 271.32C267.991 272.301 268.492 273.517 268.812 274.968C269.132 276.397 269.292 278.019 269.292 279.832C269.292 281.667 269.132 283.299 268.812 284.728C268.492 286.157 267.991 287.363 267.308 288.344C266.647 289.325 265.793 290.083 264.748 290.616C263.724 291.128 262.508 291.384 261.1 291.384ZM261.1 288.44C262.721 288.44 263.873 287.843 264.556 286.648C265.26 285.432 265.612 283.8 265.612 281.752V277.912C265.612 275.864 265.26 274.243 264.556 273.048C263.873 271.832 262.721 271.224 261.1 271.224C260.289 271.224 259.596 271.384 259.02 271.704C258.444 272.003 257.975 272.451 257.612 273.048C257.249 273.624 256.983 274.328 256.812 275.16C256.663 275.971 256.588 276.888 256.588 277.912V281.752C256.588 282.776 256.663 283.704 256.812 284.536C256.983 285.347 257.249 286.051 257.612 286.648C257.975 287.224 258.444 287.672 259.02 287.992C259.596 288.291 260.289 288.44 261.1 288.44ZM261.1 281.72C260.353 281.72 259.831 281.571 259.532 281.272C259.255 280.973 259.116 280.611 259.116 280.184V279.48C259.116 279.053 259.255 278.691 259.532 278.392C259.831 278.093 260.353 277.944 261.1 277.944C261.847 277.944 262.359 278.093 262.636 278.392C262.935 278.691 263.084 279.053 263.084 279.48V280.184C263.084 280.611 262.935 280.973 262.636 281.272C262.359 281.571 261.847 281.72 261.1 281.72Z" fill="#1A211E"/>
<path d="M161 168C161 163.582 164.582 160 169 160H201C205.418 160 209 163.582 209 168V200C209 204.418 205.418 208 201 208H169C164.582 208 161 204.418 161 200V168Z" fill="#12A594"/>
<path d="M181 190L185 194M185 194L189 190M185 194V174" stroke="#E0F8F3" stroke-width="2" stroke-linecap="round" stroke-linejoin="round"/>
<path d="M218.711 32.81L223.482 37.5927C223.482 37.5927 231.109 38.2998 240.535 27.3202C249.961 16.3406 248.297 9.55186 248.297 9.55186L243.82 4.45532C243.82 4.45532 220.812 17.5561 218.711 32.814V32.81Z" fill="#F3B443" stroke="black" stroke-width="0.380088" stroke-miterlimit="10"/>
<path d="M236.671 23.193C243.476 15.3095 246.68 6.92206 243.826 4.45928C240.973 1.99649 233.144 6.39091 226.339 14.2745C219.534 22.1581 216.331 30.5454 219.184 33.0082C222.037 35.471 229.866 31.0766 236.671 23.193Z" fill="#FFDB7F" stroke="black" stroke-width="0.380088" stroke-miterlimit="10"/>
<path d="M234.686 21.0764C240.072 14.837 242.885 8.43903 240.971 6.78618C239.056 5.13333 233.137 8.85149 227.752 15.0909C222.366 21.3304 219.552 27.7283 221.467 29.3812C223.382 31.034 229.3 27.3159 234.686 21.0764Z" fill="#FFDB7F" stroke="black" stroke-width="0.380088" stroke-miterlimit="10"/>
<path opacity="0.49" d="M244.438 22.1084L240.525 18.1003C240.525 18.1003 245.566 10.0642 244.772 5.53967L248.295 9.55175C248.295 9.55175 249.221 14.549 244.434 22.1084H244.438Z" fill="black"/>
<path d="M42.467 206.259L35.7736 212.968C35.7736 212.968 25.0721 213.957 11.8521 198.556C-1.37189 183.155 0.963853 173.63 0.963853 173.63L7.24414 166.479C7.24414 166.479 39.5155 184.856 42.467 206.259Z" fill="#F3B443" stroke="black" stroke-width="0.380088" stroke-miterlimit="10"/>
<path d="M41.8072 206.516C45.808 203.063 41.314 191.3 31.7696 180.243C22.2252 169.185 11.2447 163.021 7.24399 166.475C3.24324 169.928 7.73725 181.691 17.2816 192.748C26.826 203.806 37.8065 209.97 41.8072 206.516Z" fill="#FFDB7F" stroke="black" stroke-width="0.380088" stroke-miterlimit="10"/>
<path d="M38.608 201.432C41.2951 199.112 37.3491 190.137 29.7945 181.385C22.2398 172.632 13.9373 167.418 11.2502 169.737C8.56308 172.057 12.509 181.032 20.0637 189.784C27.6183 198.536 35.9209 203.751 38.608 201.432Z" fill="#FFDB7F" stroke="black" stroke-width="0.380088" stroke-miterlimit="10"/>
<path opacity="0.49" d="M6.37677 191.243L11.8626 185.618C11.8626 185.618 4.7918 174.349 5.90803 167.997L0.962447 173.626C0.962447 173.626 -0.33651 180.637 6.37677 191.239V191.243Z" fill="black"/>
<path d="M314.787 352.063C314.06 352.599 307.625 357.27 306.846 357.695C295.179 364.103 278.178 358.395 267.584 344.023C257.108 329.818 256.572 312.133 265.812 302.794C266.543 302.055 273.014 297.181 273.864 296.553C285.495 287.977 298.401 297.641 309.702 312.971C321.004 328.3 326.418 343.486 314.787 352.063Z" fill="#F3B443" stroke="black" stroke-width="0.380088" stroke-miterlimit="10"/>
<path opacity="0.49" d="M273.875 296.398C273.025 297.026 266.55 301.9 265.823 302.639C258.752 309.789 257.413 321.829 261.874 333.456C263.455 331.879 265.096 330.366 266.784 328.912C269.505 326.183 272.468 323.704 275.634 321.507C275.24 313.727 278.481 302.908 273.875 296.398Z" fill="black"/>
<path d="M314.787 352.059C326.418 343.483 326.685 324.104 315.384 308.775C304.082 293.446 285.491 287.971 273.86 296.547C262.228 305.122 261.961 324.501 273.262 339.83C284.564 355.159 303.155 360.634 314.787 352.059Z" fill="#FFDB7F" stroke="black" stroke-width="0.380088" stroke-miterlimit="10"/>
<path d="M313.05 348.419C323.494 340.719 323.734 323.316 313.584 309.55C303.435 295.783 286.74 290.866 276.295 298.567C265.85 306.267 265.611 323.67 275.76 337.436C285.91 351.203 302.605 356.12 313.05 348.419Z" fill="#FFDB7F" stroke="black" stroke-width="0.380088" stroke-miterlimit="10"/>
<g opacity="0.29">
<path d="M323.777 335.125L265.348 311.255V311.251C266.158 304.851 269.857 300.478 269.857 300.478L322.073 321.992C323.777 324.904 323.777 335.125 323.777 335.125Z" fill="white"/>
<path d="M322.443 340.595L265.344 317.801C265.344 317.801 265.471 317.626 265.241 317.555C265.241 317.952 265.191 318.354 265.241 318.747C265.379 319.84 265.62 320.82 265.638 321.924C265.638 322 265.678 322.254 265.666 322.322C265.765 322.552 265.721 322.862 265.837 323.116L320.457 345.163C321.251 344.17 322.244 341.588 322.443 340.595Z" fill="white"/>
</g>
<path d="M315.613 320.056C315.613 320.056 323.34 319.108 323.34 328.811C323.34 328.811 323.34 319.874 331.503 320.029C331.503 320.029 324.481 320.323 323.34 310.935C323.34 310.935 323.556 319.871 315.613 320.056Z" fill="white" stroke="black" stroke-width="0.380088" stroke-miterlimit="10"/>
<path d="M6 186.143C6 186.143 11.8361 185.4 11.8361 193C11.8361 193 11.8361 186 18 186.122C18 186.122 12.6968 186.354 11.8361 179C11.8361 179 12 186 6 186.142V186.143Z" fill="white" stroke="black" stroke-width="0.380088" stroke-miterlimit="10"/>
<path d="M331.716 156.793L297.546 135.243L280.923 163.31C279.098 166.413 285.415 173.509 295.026 179.158C304.637 184.811 313.91 186.877 315.73 183.774C315.815 183.632 315.877 183.476 315.926 183.316L315.984 183.347L331.716 156.784V156.793Z" fill="#FFDB7F" stroke="black" stroke-width="0.418097" stroke-miterlimit="10"/>
<path d="M331.84 156.215C333.664 153.112 327.351 146.016 317.739 140.366C308.128 134.715 298.857 132.65 297.033 135.753C295.209 138.856 301.522 145.952 311.134 151.602C320.745 157.253 330.016 159.318 331.84 156.215Z" fill="#CC963E" stroke="black" stroke-width="0.418097" stroke-miterlimit="10"/>
<path d="M324.794 128.508C318.869 125 311.199 126.963 307.691 132.888L303.947 139.21C303.84 139.33 303.747 139.454 303.662 139.597C302.959 140.781 303.35 142.308 304.535 143.011C305.719 143.715 307.246 143.323 307.949 142.139L311.938 135.403C314.061 131.82 318.699 130.631 322.283 132.755C325.866 134.878 327.055 139.517 324.932 143.1L321.188 149.421C321.081 149.542 320.988 149.666 320.903 149.809C320.2 150.993 320.591 152.52 321.775 153.223C322.96 153.926 324.486 153.535 325.19 152.351L329.178 145.615C332.686 139.69 330.723 132.02 324.798 128.512L324.794 128.508Z" fill="#FFDB7F" stroke="black" stroke-width="0.418097" stroke-miterlimit="10"/>
<g opacity="0.15">
<path d="M299.282 181.442C288.367 174.599 288.256 150.922 288.256 150.922L295.81 138.163C294.257 165.901 309.267 185.216 309.267 185.216C306.823 185.221 299.282 181.442 299.282 181.442Z" fill="white"/>
<path d="M321.171 174.591C312.681 165.576 312.321 152.284 312.321 152.284V152.279L323.249 157.434C322.475 160.737 325.733 166.889 325.733 166.889L321.171 174.591Z" fill="white"/>
</g>
<path d="M327.826 138.947C327.777 135.404 325.511 131.936 322.217 130.565C321.799 130.391 321.5 130.017 321.634 129.536C321.745 129.14 322.244 128.78 322.662 128.953C326.664 130.618 329.437 134.589 329.495 138.947C329.509 140.024 327.839 140.02 327.826 138.947Z" fill="white"/>
<path d="M327.621 143.479C328.694 143.479 328.698 141.809 327.621 141.809C326.544 141.809 326.544 143.479 327.621 143.479Z" fill="white"/>
<path d="M305.822 164.33C307.725 164.33 309.268 162.787 309.268 160.884C309.268 158.981 307.725 157.439 305.822 157.439C303.92 157.439 302.377 158.981 302.377 160.884C302.377 162.787 303.92 164.33 305.822 164.33Z" fill="black"/>
<path d="M304.081 160.693L298.623 167.788C298.369 168.122 298.459 168.603 298.819 168.817L301.993 170.695C302.345 170.904 302.803 170.766 302.981 170.397L306.827 162.322L304.081 160.693Z" fill="black"/>
<path d="M312 127.183C312 127.183 319.782 126.228 319.782 136C319.782 136 319.782 126.999 328 127.158C328 127.158 320.931 127.455 319.782 118C319.782 118 320 127.001 312 127.183Z" fill="white" stroke="black" stroke-width="0.380088" stroke-miterlimit="10"/>
</svg>
