<svg width="59" height="25" viewBox="0 0 59 25" fill="none" xmlns="http://www.w3.org/2000/svg">
<g id="Group">
<g id="Group_2">
<path id="Vector" d="M10.7741 3.59491C11.4402 2.76178 11.8922 1.64313 11.773 0.5C10.7979 0.548484 9.60807 1.14328 8.91919 1.97707C8.30065 2.69108 7.7532 3.85657 7.89592 4.95178C8.99047 5.04672 10.084 4.40467 10.7741 3.59491Z" fill="#83CDC1"/>
<path id="Vector_2" d="M11.7611 5.16552C10.1716 5.07084 8.82005 6.06767 8.06095 6.06767C7.30144 6.06767 6.13902 5.21324 4.88176 5.23626C3.24536 5.2603 1.72697 6.18553 0.896572 7.65708C-0.811425 10.6009 0.445832 14.9676 2.10677 17.3652C2.91336 18.5514 3.88543 19.8574 5.16629 19.8105C6.37649 19.763 6.85084 19.0269 8.32188 19.0269C9.79185 19.0269 10.2191 19.8105 11.5002 19.7868C12.8287 19.763 13.6592 18.6 14.4658 17.4127C15.3911 16.0606 15.7699 14.7549 15.7937 14.6833C15.7699 14.6595 13.232 13.6859 13.2085 10.7666C13.1845 8.32214 15.201 7.15943 15.2959 7.08732C14.1572 5.40314 12.378 5.21324 11.7611 5.16552Z" fill="#83CDC1"/>
</g>
<g id="Group_3">
<path id="Vector_3" d="M27.1013 1.85743C30.5562 1.85743 32.962 4.23891 32.962 7.70616C32.962 11.1858 30.5067 13.5796 27.0147 13.5796H23.1895V19.6628H20.4258V1.85742L27.1013 1.85743ZM23.1895 11.2598H26.3607C28.7669 11.2598 30.1364 9.96435 30.1364 7.71853C30.1364 5.47296 28.7669 4.18964 26.373 4.18964H23.1895V11.2598Z" fill="#83CDC1"/>
<path id="Vector_4" d="M33.6846 15.9732C33.6846 13.7026 35.4244 12.3084 38.5094 12.1356L42.0628 11.9259V10.9265C42.0628 9.48278 41.088 8.61906 39.4595 8.61906C37.9168 8.61906 36.9543 9.35926 36.7201 10.5193H34.2029C34.351 8.17471 36.3497 6.44727 39.5581 6.44727C42.7045 6.44727 44.7156 8.11306 44.7156 10.7166V19.6625H42.1614V17.5278H42.1C41.3474 18.9716 39.7061 19.8846 38.0034 19.8846C35.4615 19.8846 33.6846 18.3052 33.6846 15.9732ZM42.0628 14.801V13.7769L38.8669 13.9742C37.2751 14.0853 36.3745 14.7886 36.3745 15.8992C36.3745 17.0342 37.3122 17.7746 38.7436 17.7746C40.6067 17.7746 42.0628 16.4913 42.0628 14.801Z" fill="#83CDC1"/>
<path id="Vector_5" d="M47.1271 24.4383V22.2788C47.3241 22.3281 47.7683 22.3281 47.9906 22.3281C49.2244 22.3281 49.8908 21.81 50.2978 20.4774C50.2978 20.4526 50.5324 19.6877 50.5324 19.6753L45.8438 6.68213H48.7307L52.0133 17.2446H52.0623L55.3449 6.68213H58.1581L53.2962 20.3415C52.1861 23.4881 50.9028 24.4999 48.2129 24.4999C47.9906 24.4999 47.3241 24.4751 47.1271 24.4383Z" fill="#83CDC1"/>
</g>
</g>
</svg>
