<svg width="168" height="32" viewBox="0 0 168 32" fill="none" xmlns="http://www.w3.org/2000/svg">
<path fill-rule="evenodd" clip-rule="evenodd" d="M147.834 0.492637V4.05928C149.723 1.45974 153.192 0 156.382 0C159.96 0 162.867 1.38792 164.876 3.63597C166.883 5.88054 167.982 8.96757 167.982 12.3525C167.982 15.7382 166.882 18.729 164.885 20.8761C162.886 23.0258 160.004 24.3109 156.481 24.3109C153.129 24.3109 149.843 22.9581 147.834 20.3485V32H145.031V0.492637H147.834ZM149.942 5.62637C148.464 7.45731 147.685 9.96517 147.685 12.6481C147.685 15.2441 148.568 17.4994 150.106 19.1036C151.643 20.7063 153.849 21.676 156.531 21.676C161.701 21.676 165.178 17.3534 165.178 12.4018C165.178 7.28485 161.835 2.63494 156.432 2.63494C153.591 2.63494 151.415 3.80203 149.942 5.62637Z" fill="#1A211E"/>
<path fill-rule="evenodd" clip-rule="evenodd" d="M113.425 23.5918V0.616246H110.489V4.83969C109.326 3.23478 107.972 2.03111 106.426 1.22864C104.895 0.426196 103.179 0.0249731 101.278 0.0249731C97.9882 0.0249731 95.1733 1.20048 92.8334 3.55155C90.4934 5.90261 89.3234 8.73231 89.3234 12.0407C89.3234 15.4194 90.4791 18.2913 92.7908 20.6565C95.1165 23.0075 97.9172 24.1831 101.193 24.1831C103.037 24.1831 104.732 23.803 106.277 23.0428C107.837 22.2826 109.241 21.1493 110.489 19.6428V23.5918H113.425ZM96.9177 4.1006C98.3214 3.28406 99.8532 2.87579 101.512 2.87579C104.093 2.87579 106.263 3.76976 108.022 5.55768C109.794 7.34561 110.681 9.56996 110.681 12.2307C110.681 13.9763 110.284 15.5462 109.489 16.9398C108.709 18.3336 107.589 19.4388 106.128 20.2552C104.668 21.0719 103.122 21.4801 101.491 21.4801C99.8743 21.4801 98.357 21.0719 96.939 20.2552C95.5349 19.4246 94.4146 18.2704 93.5779 16.792C92.7412 15.3139 92.3227 13.7654 92.3227 12.1463C92.3227 10.5132 92.7339 8.9646 93.5566 7.50046C94.3933 6.03634 95.5136 4.90305 96.9177 4.1006Z" fill="#1A211E"/>
<path fill-rule="evenodd" clip-rule="evenodd" d="M121.581 0.492637V4.05928C123.47 1.45974 126.94 0 130.129 0C133.707 0 136.614 1.38792 138.624 3.63597C140.63 5.88054 141.729 8.96757 141.729 12.3525C141.729 15.7382 140.629 18.729 138.632 20.8761C136.633 23.0258 133.751 24.3109 130.228 24.3109C126.876 24.3109 123.59 22.9581 121.581 20.3485V32H118.778V0.492637H121.581ZM123.689 5.62637C122.212 7.45731 121.432 9.96517 121.432 12.6481C121.432 15.2441 122.315 17.4994 123.853 19.1036C125.39 20.7063 127.596 21.676 130.278 21.676C135.448 21.676 138.926 17.3534 138.926 12.4018C138.926 7.28485 135.582 2.63494 130.179 2.63494C127.339 2.63494 125.162 3.80203 123.689 5.62637Z" fill="#1A211E"/>
<path fill-rule="evenodd" clip-rule="evenodd" d="M75.5791 23.5918V0.616246H72.6435V4.83969C71.4806 3.23478 70.1262 2.03111 68.5806 1.22864C67.049 0.426196 65.333 0.0249731 63.4325 0.0249731C60.1424 0.0249731 57.3275 1.20048 54.9876 3.55155C52.6476 5.90261 51.4777 8.73231 51.4777 12.0407C51.4777 15.4194 52.6334 18.2913 54.945 20.6565C57.2707 23.0075 60.0715 24.1831 63.3476 24.1831C65.1911 24.1831 66.8859 23.803 68.4317 23.0428C69.9916 22.2826 71.3956 21.1493 72.6435 19.6428V23.5918H75.5791ZM59.0719 4.1006C60.4756 3.28406 62.0075 2.87579 63.6666 2.87579C66.2476 2.87579 68.4174 3.76976 70.176 5.55768C71.9487 7.34561 72.835 9.56996 72.835 12.2307C72.835 13.9763 72.4378 15.5462 71.6437 16.9398C70.8636 18.3336 69.7433 19.4388 68.2826 20.2552C66.822 21.0719 65.2761 21.4801 63.6453 21.4801C62.0285 21.4801 60.5112 21.0719 59.0932 20.2552C57.6891 19.4246 56.5688 18.2704 55.7321 16.792C54.8954 15.3139 54.4769 13.7654 54.4769 12.1463C54.4769 10.5132 54.8881 8.9646 55.7108 7.50046C56.5475 6.03634 57.6678 4.90305 59.0719 4.1006Z" fill="#1A211E"/>
<path d="M34.2666 0.616246H30.6927L38.6275 11.5339L29.8633 23.5918H33.4156L40.3931 13.9412L47.4766 23.5918H51.0931L42.1798 11.5339L50.0932 0.616246H46.5194L40.3931 9.12649L34.2666 0.616246Z" fill="#1A211E"/>
<path d="M0 0.526146H26.6234V1.48723H26.6237V4.37044H24.2034V3.40935H2.42059V4.37044H0.000278875L0.000278917 3.40935H0V0.526146Z" fill="#1A211E"/>
<path d="M6.5351 10.6174V10.0073L4.11479 10.0073L4.11479 14.0918H6.53511V13.5006H20.331V14.0918H22.7513L22.7513 10.0073L20.331 10.0073V10.6174H6.5351Z" fill="#1A211E"/>
<path d="M2.42059 19.7475V20.7087H24.2034V19.7475H26.6237L26.6237 23.5919H0.000241748L0.000279001 19.7475H2.42059Z" fill="#1A211E"/>
</svg>
