<svg width="62" height="25" viewBox="0 0 62 25" fill="none" xmlns="http://www.w3.org/2000/svg">
<g id="G_Pay_Lockup_1_">
<g id="Pay_Typeface_3_">
<path id="Letter_p_3_" d="M28.7075 12.1726V19.2486H26.4619V1.7749H32.4151C33.9239 1.7749 35.2105 2.27783 36.2631 3.28368C37.3391 4.28953 37.8771 5.5176 37.8771 6.96789C37.8771 8.45327 37.3391 9.68134 36.2631 10.6755C35.2221 11.6696 33.9356 12.1609 32.4151 12.1609H28.7075V12.1726ZM28.7075 3.92695V10.0205H32.4619C33.3508 10.0205 34.0993 9.71642 34.6841 9.11993C35.2806 8.52344 35.5847 7.79829 35.5847 6.97958C35.5847 6.17256 35.2806 5.45912 34.6841 4.86262C34.0993 4.24274 33.3625 3.93864 32.4619 3.93864H28.7075V3.92695Z" fill="#83CDC1"/>
<path id="Letter_a_3_" d="M43.7486 6.89795C45.4094 6.89795 46.7194 7.34239 47.6784 8.23128C48.6375 9.12017 49.117 10.3365 49.117 11.8804V19.2488H46.9767V17.588H46.8831C45.9591 18.9564 44.7194 19.6348 43.1755 19.6348C41.8539 19.6348 40.7545 19.2488 39.8656 18.4652C38.9767 17.6816 38.5322 16.7108 38.5322 15.5412C38.5322 14.3015 39.0001 13.319 39.9357 12.5939C40.8714 11.857 42.1229 11.4944 43.6784 11.4944C45.0118 11.4944 46.1112 11.7401 46.965 12.2313V11.7167C46.965 10.933 46.6609 10.2781 46.041 9.72836C45.4211 9.17865 44.696 8.90964 43.8656 8.90964C42.6141 8.90964 41.6199 9.43596 40.8948 10.5003L38.9182 9.26052C40.0059 7.68157 41.6199 6.89795 43.7486 6.89795ZM40.848 15.5763C40.848 16.1611 41.0936 16.6523 41.5966 17.0383C42.0878 17.4243 42.6726 17.6231 43.3392 17.6231C44.2866 17.6231 45.1287 17.2722 45.8656 16.5705C46.6024 15.8687 46.9767 15.05 46.9767 14.1026C46.2749 13.5529 45.3042 13.2722 44.0527 13.2722C43.1404 13.2722 42.3802 13.4944 41.772 13.9272C41.1521 14.3833 40.848 14.933 40.848 15.5763Z" fill="#83CDC1"/>
<path id="Letter_y_3_" d="M61.3272 7.28369L53.8419 24.5001H51.5261L54.3097 18.4767L49.374 7.28369H51.8185L55.374 15.8685H55.4208L58.8828 7.28369H61.3272Z" fill="#83CDC1"/>
</g>
<g id="G_Mark_1_">
<path id="Blue_500" d="M19.7758 10.7456C19.7758 10.0134 19.7103 9.31284 19.5886 8.63916H10.1758V12.4988L15.5968 12.5C15.377 13.7842 14.6693 14.8789 13.5851 15.6087V18.1128H16.812C18.6962 16.369 19.7758 13.7912 19.7758 10.7456Z" fill="#83CDC1"/>
<path id="Green_500_1_" d="M13.5862 15.6085C12.688 16.2144 11.5312 16.5688 10.178 16.5688C7.56398 16.5688 5.34644 14.8074 4.55229 12.4331H1.22363V15.0156C2.87276 18.2881 6.26223 20.5337 10.178 20.5337C12.8845 20.5337 15.1581 19.6436 16.8131 18.1115L13.5862 15.6085Z" fill="#83CDC1"/>
<path id="Yellow_500_1_" d="M4.2389 10.5175C4.2389 9.85081 4.35001 9.20637 4.55235 8.60052V6.01807H1.2237C0.541827 7.37128 0.158203 8.89877 0.158203 10.5175C0.158203 12.1362 0.542997 13.6637 1.2237 15.0169L4.55235 12.4344C4.35001 11.8286 4.2389 11.1841 4.2389 10.5175Z" fill="#83CDC1"/>
<path id="Red_500" d="M10.178 4.46491C11.6552 4.46491 12.978 4.97368 14.0225 5.96784L16.8821 3.11053C15.1453 1.49298 12.8809 0.5 10.178 0.5C6.2634 0.5 2.87276 2.74561 1.22363 6.01813L4.55229 8.60058C5.34644 6.22632 7.56398 4.46491 10.178 4.46491Z" fill="#83CDC1"/>
</g>
</g>
</svg>
