<svg width="61" height="21" viewBox="0 0 61 21" fill="none" xmlns="http://www.w3.org/2000/svg">
<g id="Frame">
<path id="Vector" d="M21.7565 18.9384L24.6117 2.2068H29.1786L26.3213 18.9384H21.7565ZM42.8201 2.56748C41.9155 2.22851 40.4976 1.86475 38.7272 1.86475C34.2147 1.86475 31.036 4.13398 31.009 7.38637C30.9834 9.79065 33.2783 11.1318 35.0104 11.9322C36.7881 12.7523 37.3856 13.2753 37.3772 14.0077C37.366 15.1291 35.9576 15.6415 34.6451 15.6415C32.8172 15.6415 31.8462 15.3879 30.3463 14.7632L29.7578 14.4974L29.1169 18.243C30.1836 18.71 32.1561 19.1146 34.204 19.1355C39.0045 19.1355 42.1207 16.8923 42.1563 13.4191C42.1733 11.5158 40.9567 10.0673 38.322 8.87312C36.7258 8.09919 35.7482 7.58261 35.7586 6.79894C35.7586 6.10347 36.586 5.3597 38.3738 5.3597C39.8672 5.33663 40.9491 5.66184 41.792 6.00073L42.2012 6.19389L42.8201 2.56748ZM54.572 2.20654H51.0431C49.9499 2.20654 49.1318 2.50458 48.6517 3.59406L41.8695 18.9274H46.665C46.665 18.9274 47.449 16.8656 47.6263 16.413C48.1505 16.413 52.809 16.4202 53.4751 16.4202C53.6117 17.0059 54.0306 18.9274 54.0306 18.9274H58.2683L54.572 2.20603V2.20654ZM48.9731 13.0108C49.3507 12.0468 50.7927 8.33364 50.7927 8.33364C50.7656 8.37825 51.1674 7.36492 51.3981 6.73671L51.7066 8.17936C51.7066 8.17936 52.5812 12.1733 52.764 13.0108H48.9731ZM17.8796 2.20654L13.4085 13.6168L12.9321 11.298C12.0998 8.62509 9.50649 5.72919 6.60742 4.27936L10.6955 18.9118L15.5274 18.9064L22.717 2.20637H17.8796" fill="#83CDC1"/>
<path id="Vector_2" d="M9.23863 2.2064H1.87469L1.81641 2.55452C7.54539 3.93947 11.3362 7.2864 12.9101 11.3075L11.3088 3.61862C11.0323 2.55922 10.2307 2.24306 9.2388 2.20605" fill="#83CDC1"/>
</g>
</svg>
