<svg width="165" height="104" viewBox="0 0 165 104" fill="none" xmlns="http://www.w3.org/2000/svg">
<rect x="1" y="1" width="163" height="102" rx="7" stroke="#EEF1F0" stroke-width="2"/>
<path d="M6.51953 96.3309C6.51953 96.1706 6.55555 96.0284 6.62759 95.9041C6.70364 95.7759 6.8037 95.6758 6.92777 95.6036C7.05184 95.5275 7.18992 95.4894 7.34201 95.4894C7.4981 95.4894 7.64018 95.5275 7.76825 95.6036C7.89633 95.6758 7.99639 95.7759 8.06843 95.9041C8.14447 96.0284 8.18249 96.1706 8.18249 96.3309C8.18249 96.4791 8.14447 96.6154 8.06843 96.7396C7.99639 96.8638 7.89633 96.964 7.76825 97.0401C7.64018 97.1122 7.4981 97.1483 7.34201 97.1483C7.18992 97.1483 7.05184 97.1122 6.92777 97.0401C6.8037 96.964 6.70364 96.8638 6.62759 96.7396C6.55555 96.6154 6.51953 96.4791 6.51953 96.3309Z" fill="#5F6563"/>
<path d="M10.6528 96.3309C10.6528 96.1706 10.6888 96.0284 10.7608 95.9041C10.8369 95.7759 10.9369 95.6758 11.061 95.6036C11.1851 95.5275 11.3232 95.4894 11.4753 95.4894C11.6313 95.4894 11.7734 95.5275 11.9015 95.6036C12.0296 95.6758 12.1296 95.7759 12.2017 95.9041C12.2777 96.0284 12.3157 96.1706 12.3157 96.3309C12.3157 96.4791 12.2777 96.6154 12.2017 96.7396C12.1296 96.8638 12.0296 96.964 11.9015 97.0401C11.7734 97.1122 11.6313 97.1483 11.4753 97.1483C11.3232 97.1483 11.1851 97.1122 11.061 97.0401C10.9369 96.964 10.8369 96.8638 10.7608 96.7396C10.6888 96.6154 10.6528 96.4791 10.6528 96.3309Z" fill="#5F6563"/>
<path d="M14.786 96.3309C14.786 96.1706 14.8221 96.0284 14.8941 95.9041C14.9701 95.7759 15.0702 95.6758 15.1943 95.6036C15.3183 95.5275 15.4564 95.4894 15.6085 95.4894C15.7646 95.4894 15.9067 95.5275 16.0348 95.6036C16.1628 95.6758 16.2629 95.7759 16.3349 95.9041C16.411 96.0284 16.449 96.1706 16.449 96.3309C16.449 96.4791 16.411 96.6154 16.3349 96.7396C16.2629 96.8638 16.1628 96.964 16.0348 97.0401C15.9067 97.1122 15.7646 97.1483 15.6085 97.1483C15.4564 97.1483 15.3183 97.1122 15.1943 97.0401C15.0702 96.964 14.9701 96.8638 14.8941 96.7396C14.8221 96.6154 14.786 96.4791 14.786 96.3309Z" fill="#5F6563"/>
<path d="M18.9193 96.3309C18.9193 96.1706 18.9553 96.0284 19.0273 95.9041C19.1034 95.7759 19.2034 95.6758 19.3275 95.6036C19.4516 95.5275 19.5897 95.4894 19.7418 95.4894C19.8978 95.4894 20.0399 95.5275 20.168 95.6036C20.2961 95.6758 20.3961 95.7759 20.4682 95.9041C20.5442 96.0284 20.5822 96.1706 20.5822 96.3309C20.5822 96.4791 20.5442 96.6154 20.4682 96.7396C20.3961 96.8638 20.2961 96.964 20.168 97.0401C20.0399 97.1122 19.8978 97.1483 19.7418 97.1483C19.5897 97.1483 19.4516 97.1122 19.3275 97.0401C19.2034 96.964 19.1034 96.8638 19.0273 96.7396C18.9553 96.6154 18.9193 96.4791 18.9193 96.3309Z" fill="#5F6563"/>
<path d="M24.4513 98.0498C24.0671 98.0498 23.7569 97.9557 23.5208 97.7673C23.2887 97.579 23.1186 97.3166 23.0105 96.98C22.9024 96.6394 22.8484 96.2447 22.8484 95.796C22.8484 95.255 22.9144 94.8203 23.0465 94.4917C23.1826 94.1632 23.3707 93.9247 23.6109 93.7765C23.851 93.6242 24.1312 93.5481 24.4513 93.5481C24.8356 93.5481 25.1457 93.6423 25.3819 93.8306C25.618 94.0189 25.7881 94.2814 25.8922 94.6179C26.0002 94.9545 26.0543 95.3472 26.0543 95.796C26.0543 96.3369 25.9862 96.7736 25.8501 97.1062C25.7181 97.4348 25.532 97.6752 25.2918 97.8274C25.0517 97.9757 24.7715 98.0498 24.4513 98.0498ZM24.4513 97.5029C24.6955 97.5029 24.8876 97.4328 25.0277 97.2925C25.1678 97.1483 25.2678 96.9479 25.3278 96.6915C25.3919 96.4351 25.4239 96.1365 25.4239 95.796C25.4239 95.3632 25.3819 95.0246 25.2978 94.7802C25.2178 94.5318 25.1037 94.3555 24.9556 94.2513C24.8115 94.1471 24.6434 94.095 24.4513 94.095C24.2112 94.095 24.0191 94.1672 23.875 94.3114C23.7349 94.4516 23.6329 94.65 23.5688 94.9064C23.5088 95.1589 23.4788 95.4554 23.4788 95.796C23.4788 96.2287 23.5188 96.5693 23.5988 96.8177C23.6829 97.0661 23.799 97.2424 23.947 97.3466C24.0951 97.4508 24.2632 97.5029 24.4513 97.5029Z" fill="#5F6563"/>
<path d="M24.4513 98.0498C24.0671 98.0498 23.7569 97.9557 23.5208 97.7673C23.2887 97.579 23.1186 97.3166 23.0105 96.98C22.9024 96.6394 22.8484 96.2447 22.8484 95.796C22.8484 95.255 22.9144 94.8203 23.0465 94.4917C23.1826 94.1632 23.3707 93.9247 23.6109 93.7765C23.851 93.6242 24.1312 93.5481 24.4513 93.5481C24.8356 93.5481 25.1457 93.6423 25.3819 93.8306C25.618 94.0189 25.7881 94.2814 25.8922 94.6179C26.0002 94.9545 26.0543 95.3472 26.0543 95.796C26.0543 96.3369 25.9862 96.7736 25.8501 97.1062C25.7181 97.4348 25.532 97.6752 25.2918 97.8274C25.0517 97.9757 24.7715 98.0498 24.4513 98.0498ZM24.4513 97.5029C24.6955 97.5029 24.8876 97.4328 25.0277 97.2925C25.1678 97.1483 25.2678 96.9479 25.3278 96.6915C25.3919 96.4351 25.4239 96.1365 25.4239 95.796C25.4239 95.3632 25.3819 95.0246 25.2978 94.7802C25.2178 94.5318 25.1037 94.3555 24.9556 94.2513C24.8115 94.1471 24.6434 94.095 24.4513 94.095C24.2112 94.095 24.0191 94.1672 23.875 94.3114C23.7349 94.4516 23.6329 94.65 23.5688 94.9064C23.5088 95.1589 23.4788 95.4554 23.4788 95.796C23.4788 96.2287 23.5188 96.5693 23.5988 96.8177C23.6829 97.0661 23.799 97.2424 23.947 97.3466C24.0951 97.4508 24.2632 97.5029 24.4513 97.5029Z" fill="#5F6563"/>
<path d="M29.655 98.0498C29.2708 98.0498 28.9606 97.9557 28.7245 97.7673C28.4924 97.579 28.3223 97.3166 28.2142 96.98C28.1061 96.6394 28.0521 96.2447 28.0521 95.796C28.0521 95.255 28.1182 94.8203 28.2502 94.4917C28.3863 94.1632 28.5744 93.9247 28.8146 93.7765C29.0547 93.6242 29.3349 93.5481 29.655 93.5481C30.0393 93.5481 30.3494 93.6423 30.5856 93.8306C30.8217 94.0189 30.9918 94.2814 31.0959 94.6179C31.2039 94.9545 31.258 95.3472 31.258 95.796C31.258 96.3369 31.1899 96.7736 31.0539 97.1062C30.9218 97.4348 30.7357 97.6752 30.4955 97.8274C30.2554 97.9757 29.9752 98.0498 29.655 98.0498ZM29.655 97.5029C29.8992 97.5029 30.0913 97.4328 30.2314 97.2925C30.3715 97.1483 30.4715 96.9479 30.5315 96.6915C30.5956 96.4351 30.6276 96.1365 30.6276 95.796C30.6276 95.3632 30.5856 95.0246 30.5015 94.7802C30.4215 94.5318 30.3074 94.3555 30.1593 94.2513C30.0153 94.1471 29.8472 94.095 29.655 94.095C29.4149 94.095 29.2228 94.1672 29.0787 94.3114C28.9386 94.4516 28.8366 94.65 28.7725 94.9064C28.7125 95.1589 28.6825 95.4554 28.6825 95.796C28.6825 96.2287 28.7225 96.5693 28.8025 96.8177C28.8866 97.0661 29.0027 97.2424 29.1508 97.3466C29.2988 97.4508 29.4669 97.5029 29.655 97.5029Z" fill="#5F6563"/>
<path d="M35.1287 98.0498C34.7445 98.0498 34.4343 97.9557 34.1982 97.7673C33.9661 97.579 33.796 97.3166 33.6879 96.98C33.5798 96.6394 33.5258 96.2447 33.5258 95.796C33.5258 95.255 33.5918 94.8203 33.7239 94.4917C33.86 94.1632 34.0481 93.9247 34.2882 93.7765C34.5284 93.6242 34.8085 93.5481 35.1287 93.5481C35.513 93.5481 35.8231 93.6423 36.0593 93.8306C36.2954 94.0189 36.4655 94.2814 36.5696 94.6179C36.6776 94.9545 36.7317 95.3472 36.7317 95.796C36.7317 96.3369 36.6636 96.7736 36.5275 97.1062C36.3955 97.4348 36.2094 97.6752 35.9692 97.8274C35.7291 97.9757 35.4489 98.0498 35.1287 98.0498ZM35.1287 97.5029C35.3729 97.5029 35.565 97.4328 35.7051 97.2925C35.8451 97.1483 35.9452 96.9479 36.0052 96.6915C36.0693 96.4351 36.1013 96.1365 36.1013 95.796C36.1013 95.3632 36.0593 95.0246 35.9752 94.7802C35.8952 94.5318 35.7811 94.3555 35.633 94.2513C35.4889 94.1471 35.3208 94.095 35.1287 94.095C34.8886 94.095 34.6965 94.1672 34.5524 94.3114C34.4123 94.4516 34.3103 94.65 34.2462 94.9064C34.1862 95.1589 34.1562 95.4554 34.1562 95.796C34.1562 96.2287 34.1962 96.5693 34.2762 96.8177C34.3603 97.0661 34.4763 97.2424 34.6244 97.3466C34.7725 97.4508 34.9406 97.5029 35.1287 97.5029Z" fill="#5F6563"/>
<path d="M40.6024 98.0498C40.2182 98.0498 39.908 97.9557 39.6719 97.7673C39.4397 97.579 39.2696 97.3166 39.1616 96.98C39.0535 96.6394 38.9995 96.2447 38.9995 95.796C38.9995 95.255 39.0655 94.8203 39.1976 94.4917C39.3337 94.1632 39.5218 93.9247 39.7619 93.7765C40.0021 93.6242 40.2822 93.5481 40.6024 93.5481C40.9866 93.5481 41.2968 93.6423 41.533 93.8306C41.7691 94.0189 41.9392 94.2814 42.0432 94.6179C42.1513 94.9545 42.2053 95.3472 42.2053 95.796C42.2053 96.3369 42.1373 96.7736 42.0012 97.1062C41.8691 97.4348 41.683 97.6752 41.4429 97.8274C41.2028 97.9757 40.9226 98.0498 40.6024 98.0498ZM40.6024 97.5029C40.8466 97.5029 41.0387 97.4328 41.1787 97.2925C41.3188 97.1483 41.4189 96.9479 41.4789 96.6915C41.543 96.4351 41.575 96.1365 41.575 95.796C41.575 95.3632 41.533 95.0246 41.4489 94.7802C41.3689 94.5318 41.2548 94.3555 41.1067 94.2513C40.9626 94.1471 40.7945 94.095 40.6024 94.095C40.3623 94.095 40.1702 94.1672 40.0261 94.3114C39.886 94.4516 39.7839 94.65 39.7199 94.9064C39.6599 95.1589 39.6298 95.4554 39.6298 95.796C39.6298 96.2287 39.6699 96.5693 39.7499 96.8177C39.834 97.0661 39.95 97.2424 40.0981 97.3466C40.2462 97.4508 40.4143 97.5029 40.6024 97.5029Z" fill="#5F6563"/>
<path d="M122.088 92.9933C122.088 93.9467 122.339 94.6747 122.842 95.1773C123.353 95.68 124.055 95.9313 124.948 95.9313C125.589 95.9313 126.122 95.8273 126.547 95.6193C126.972 95.4113 127.366 95.16 127.73 94.8653H127.795L127.496 97.3743C127.123 97.565 126.703 97.7383 126.235 97.8943C125.776 98.0417 125.212 98.1153 124.545 98.1153C123.444 98.1153 122.5 97.89 121.711 97.4393C120.922 96.9887 120.316 96.3777 119.891 95.6063C119.466 94.835 119.254 93.964 119.254 92.9933C119.254 92.0227 119.466 91.1517 119.891 90.3803C120.316 89.609 120.922 88.998 121.711 88.5473C122.5 88.0967 123.444 87.8713 124.545 87.8713C125.212 87.8713 125.771 87.9363 126.222 88.0663C126.681 88.1877 127.067 88.3567 127.379 88.5733L127.678 91.0823H127.613C127.249 90.779 126.833 90.532 126.365 90.3413C125.897 90.1507 125.425 90.0553 124.948 90.0553C124.055 90.0553 123.353 90.3067 122.842 90.8093C122.339 91.312 122.088 92.04 122.088 92.9933Z" fill="#EEF1F0"/>
<path d="M130.869 97.9333H128.399L131.805 88.0533H134.743L138.162 97.9333H135.25L134.613 95.8403H131.519L130.869 97.9333ZM132.13 93.8773H134.015L133.105 90.9003H133.066L132.13 93.8773Z" fill="#EEF1F0"/>
<path d="M139.22 97.9333V88.0533H143.9C144.576 88.0533 145.169 88.1877 145.681 88.4563C146.192 88.7163 146.591 89.0847 146.877 89.5613C147.171 90.038 147.319 90.597 147.319 91.2383C147.319 91.8797 147.167 92.4473 146.864 92.9413C146.56 93.4353 146.144 93.808 145.616 94.0593L147.904 97.9333H144.81L142.938 94.4233H141.924V97.9333H139.22ZM143.133 90.1333H141.924V92.4993H143.133C143.566 92.4993 143.9 92.4257 144.134 92.2783C144.376 92.131 144.498 91.8103 144.498 91.3163C144.498 90.831 144.376 90.5147 144.134 90.3673C143.9 90.2113 143.566 90.1333 143.133 90.1333Z" fill="#EEF1F0"/>
<path d="M152.838 97.9333H149.198V88.0533H152.838C153.93 88.0533 154.884 88.2267 155.698 88.5733C156.522 88.9113 157.159 89.4443 157.609 90.1723C158.069 90.9003 158.298 91.8407 158.298 92.9933C158.298 94.146 158.069 95.0863 157.609 95.8143C157.159 96.5423 156.522 97.0797 155.698 97.4263C154.884 97.7643 153.93 97.9333 152.838 97.9333ZM152.747 95.6453C153.38 95.6453 153.896 95.5717 154.294 95.4243C154.702 95.2683 155.001 94.9997 155.191 94.6183C155.391 94.2283 155.49 93.6867 155.49 92.9933C155.49 92.2913 155.391 91.7497 155.191 91.3683C155.001 90.987 154.702 90.7227 154.294 90.5753C153.896 90.4193 153.38 90.3413 152.747 90.3413H151.902V95.6453H152.747Z" fill="#EEF1F0"/>
<path d="M71 65.3334H95M75 60.0001V50.6667M80.3333 60.0001V50.6667M85.6667 60.0001V50.6667M91 60.0001V50.6667M83 38.6667L93.6667 45.3334H72.3333L83 38.6667Z" stroke="black" stroke-width="2" stroke-linecap="round" stroke-linejoin="round"/>
</svg>
