<svg width="25" height="24" viewBox="0 0 25 24" fill="none" xmlns="http://www.w3.org/2000/svg">
<g id="lucide/award">
<path id="Vector" d="M15.977 12.89L17.492 21.416C17.509 21.5164 17.4949 21.6196 17.4516 21.7118C17.4084 21.8039 17.338 21.8807 17.2499 21.9318C17.1619 21.9829 17.0603 22.0059 16.9588 21.9977C16.8573 21.9895 16.7607 21.9506 16.682 21.886L13.102 19.199C12.9292 19.0699 12.7192 19.0001 12.5035 19.0001C12.2878 19.0001 12.0778 19.0699 11.905 19.199L8.319 21.885C8.24032 21.9494 8.14386 21.9883 8.0425 21.9965C7.94113 22.0047 7.83967 21.9818 7.75166 21.9309C7.66365 21.8799 7.59328 21.8033 7.54992 21.7113C7.50656 21.6193 7.49229 21.5163 7.509 21.416L9.023 12.89M18.5 8C18.5 11.3137 15.8137 14 12.5 14C9.18629 14 6.5 11.3137 6.5 8C6.5 4.68629 9.18629 2 12.5 2C15.8137 2 18.5 4.68629 18.5 8Z" stroke="#1A211E" stroke-width="2" stroke-linecap="round" stroke-linejoin="round"/>
</g>
</svg>
