<svg width="25" height="24" viewBox="0 0 25 24" fill="none" xmlns="http://www.w3.org/2000/svg">
<path d="M6.5 12H6.51M18.5 12H18.51M4.5 6H20.5C21.6046 6 22.5 6.89543 22.5 8V16C22.5 17.1046 21.6046 18 20.5 18H4.5C3.39543 18 2.5 17.1046 2.5 16V8C2.5 6.89543 3.39543 6 4.5 6ZM14.5 12C14.5 13.1046 13.6046 14 12.5 14C11.3954 14 10.5 13.1046 10.5 12C10.5 10.8954 11.3954 10 12.5 10C13.6046 10 14.5 10.8954 14.5 12Z" stroke="#1A211E" stroke-width="2" stroke-linecap="round" stroke-linejoin="round"/>
</svg>
