<svg width="32" height="32" viewBox="0 0 32 32" fill="none" xmlns="http://www.w3.org/2000/svg">
<g id="lucide/globe">
<path id="Vector" d="M29.3327 16C29.3327 23.3638 23.3631 29.3333 15.9993 29.3333M29.3327 16C29.3327 8.63616 23.3631 2.66663 15.9993 2.66663M29.3327 16H2.66602M15.9993 29.3333C8.63555 29.3333 2.66602 23.3638 2.66602 16M15.9993 29.3333C12.5757 25.7384 10.666 20.9643 10.666 16C10.666 11.0356 12.5757 6.2615 15.9993 2.66663M15.9993 29.3333C19.423 25.7384 21.3327 20.9643 21.3327 16C21.3327 11.0356 19.423 6.2615 15.9993 2.66663M2.66602 16C2.66602 8.63616 8.63555 2.66663 15.9993 2.66663" stroke="#12A594" stroke-width="2.4" stroke-linecap="round" stroke-linejoin="round"/>
</g>
</svg>
