<svg width="40" height="40" viewBox="0 0 40 40" fill="none" xmlns="http://www.w3.org/2000/svg">
<path d="M18.332 25H21.6654C22.5494 25 23.3973 24.6488 24.0224 24.0237C24.6475 23.3986 24.9987 22.5507 24.9987 21.6667C24.9987 20.7826 24.6475 19.9348 24.0224 19.3097C23.3973 18.6845 22.5494 18.3333 21.6654 18.3333H16.6654C15.6654 18.3333 14.832 18.6667 14.332 19.3333L4.9987 28.3333M11.6654 35L14.332 32.6667C14.832 32 15.6654 31.6667 16.6654 31.6667H23.332C25.1654 31.6667 26.832 31 27.9987 29.6667L35.6654 22.3333C36.3085 21.7256 36.6839 20.8872 36.7089 20.0026C36.7339 19.1181 36.4065 18.2598 35.7987 17.6167C35.1909 16.9735 34.3525 16.5982 33.468 16.5732C32.5834 16.5482 31.7252 16.8756 31.082 17.4833L24.082 23.9833M3.33203 26.6667L13.332 36.6667M31.4987 15C31.4987 17.6694 29.3347 19.8333 26.6654 19.8333C23.996 19.8333 21.832 17.6694 21.832 15C21.832 12.3306 23.996 10.1667 26.6654 10.1667C29.3347 10.1667 31.4987 12.3306 31.4987 15ZM14.9987 8.33334C14.9987 11.0948 12.7601 13.3333 9.9987 13.3333C7.23727 13.3333 4.9987 11.0948 4.9987 8.33334C4.9987 5.57192 7.23727 3.33334 9.9987 3.33334C12.7601 3.33334 14.9987 5.57192 14.9987 8.33334Z" stroke="#12A594" stroke-width="2.6" stroke-linecap="round" stroke-linejoin="round"/>
</svg>
