<svg width="25" height="25" viewBox="0 0 25 25" fill="none" xmlns="http://www.w3.org/2000/svg">
<path d="M3.086 18.1395C2.7109 18.5302 2.50011 19.06 2.5 19.6125V21.875C2.5 22.1512 2.60536 22.4162 2.79289 22.6115C2.98043 22.8069 3.23478 22.9166 3.5 22.9166H6.5C6.76522 22.9166 7.01957 22.8069 7.20711 22.6115C7.39464 22.4162 7.5 22.1512 7.5 21.875V20.8333C7.5 20.557 7.60536 20.2921 7.79289 20.0967C7.98043 19.9014 8.23478 19.7916 8.5 19.7916H9.5C9.76522 19.7916 10.0196 19.6819 10.2071 19.4865C10.3946 19.2912 10.5 19.0262 10.5 18.75V17.7083C10.5 17.432 10.6054 17.1671 10.7929 16.9717C10.9804 16.7764 11.2348 16.6666 11.5 16.6666H11.672C12.2024 16.6665 12.711 16.4469 13.086 16.0562L13.9 15.2083C15.2898 15.7126 16.8028 15.7107 18.1915 15.2028C19.5801 14.695 20.7622 13.7113 21.5444 12.4126C22.3265 11.1139 22.6624 9.57723 22.4971 8.05386C22.3318 6.53049 21.6751 5.11064 20.6344 4.0266C19.5937 2.94255 18.2307 2.25849 16.7683 2.08631C15.3058 1.91412 13.8306 2.26402 12.5839 3.07876C11.3372 3.89349 10.3928 5.12483 9.90525 6.57134C9.41771 8.01785 9.41585 9.59388 9.9 11.0416L3.086 18.1395Z" stroke="#1A211E" stroke-width="2" stroke-linecap="round" stroke-linejoin="round"/>
<path d="M17 8.3333C17.2761 8.3333 17.5 8.10011 17.5 7.81246C17.5 7.52482 17.2761 7.29163 17 7.29163C16.7239 7.29163 16.5 7.52482 16.5 7.81246C16.5 8.10011 16.7239 8.3333 17 8.3333Z" stroke="#1A211E" stroke-width="2" stroke-linecap="round" stroke-linejoin="round"/>
</svg>
