<svg width="25" height="24" viewBox="0 0 25 24" fill="none" xmlns="http://www.w3.org/2000/svg">
<path d="M7.5 10V7C7.5 5.67392 8.02678 4.40215 8.96447 3.46447C9.90215 2.52678 11.1739 2 12.5 2C13.8261 2 15.0979 2.52678 16.0355 3.46447C16.9732 4.40215 17.5 5.67392 17.5 7V10M13.5 16C13.5 16.5523 13.0523 17 12.5 17C11.9477 17 11.5 16.5523 11.5 16C11.5 15.4477 11.9477 15 12.5 15C13.0523 15 13.5 15.4477 13.5 16ZM5.5 10H19.5C20.6046 10 21.5 10.8954 21.5 12V20C21.5 21.1046 20.6046 22 19.5 22H5.5C4.39543 22 3.5 21.1046 3.5 20V12C3.5 10.8954 4.39543 10 5.5 10Z" stroke="#1A211E" stroke-width="2" stroke-linecap="round" stroke-linejoin="round"/>
</svg>
