<svg width="454" height="308" viewBox="0 0 454 308" fill="none" xmlns="http://www.w3.org/2000/svg">
<rect width="454" height="308" rx="24" fill="#F3FBF9"/>
<path fill-rule="evenodd" clip-rule="evenodd" d="M233.853 239C229.906 239 226.706 235.81 226.706 231.875L226.706 229.844C219.105 235.718 209.733 238.964 200.027 239L200 239C189.126 239 178.698 234.694 171.009 227.028C163.32 219.362 159 208.966 159 198.125C159 194.19 162.2 191 166.147 191C170.094 191 173.294 194.19 173.294 198.125C173.294 205.186 176.107 211.959 181.116 216.952C186.121 221.942 192.908 224.746 199.987 224.75C205.535 224.727 210.921 223.147 215.553 220.25L215.046 220.25C211.099 220.25 207.899 217.06 207.899 213.125C207.899 209.19 211.099 206 215.046 206L233.853 206C237.8 206 241 209.19 241 213.125L241 231.875C241 235.81 237.8 239 233.853 239Z" fill="#27A394" stroke="black" stroke-linecap="round" stroke-linejoin="round"/>
<path fill-rule="evenodd" clip-rule="evenodd" d="M220.147 63C224.094 63 227.294 66.19 227.294 70.125V72.1565C234.895 66.2825 244.267 63.0365 253.973 63.0001L254 63C264.874 63 275.302 67.3065 282.991 74.972C290.68 82.6376 295 93.0343 295 103.875C295 107.81 291.8 111 287.853 111C283.906 111 280.706 107.81 280.706 103.875C280.706 96.8136 277.893 90.0414 272.884 85.0483C267.879 80.0583 261.092 77.2536 254.013 77.25C248.465 77.2733 243.079 78.8531 238.447 81.75H238.954C242.901 81.75 246.101 84.94 246.101 88.875C246.101 92.81 242.901 96 238.954 96H220.147C216.2 96 213 92.81 213 88.875V70.125C213 66.19 216.2 63 220.147 63Z" fill="#27A394" stroke="black" stroke-linecap="round" stroke-linejoin="round"/>
<path d="M177.583 132.485C176.633 133.623 168.209 143.604 167.136 144.589C151.049 159.396 121.695 156.978 99.1489 138.23C76.8563 119.695 69.046 91.7043 80.1008 73.1813C80.9739 71.7183 89.38 61.4008 90.4891 60.0617C105.661 41.8159 130.048 52.1452 154.099 72.143C178.149 92.1409 192.755 114.233 177.583 132.479V132.485Z" fill="#F3B443" stroke="black" stroke-width="1.1873" stroke-miterlimit="10"/>
<path opacity="0.49" d="M154.058 71.8954C130.007 51.8975 105.626 41.5624 90.4479 59.8141C89.3389 61.1473 80.9327 71.4706 80.0596 72.9336C71.5945 87.115 74.2019 106.841 85.882 123.624C87.7815 120.492 89.799 117.43 91.9227 114.445C95.1848 109.024 98.9367 103.904 103.119 99.155C99.1431 85.9352 95.4621 73.4232 97.7214 74.8744C108.588 81.8294 130.827 115.147 147.781 133.393C148.052 133.187 148.359 133.033 148.695 132.945C148.4 132.656 148.111 132.361 147.822 132.066C145.887 130.084 147.946 127.636 150.105 127.954C149.969 127.754 149.828 127.559 149.692 127.353C148.353 125.306 151.191 122.444 153.202 123.961C153.709 124.338 154.199 124.733 154.689 125.134C154.081 124.503 153.485 123.872 152.895 123.229C150.648 120.781 154.069 117.672 156.517 119.713C159.78 122.433 162.753 125.931 165.968 129.063C163.72 126.509 161.532 123.913 159.968 120.864C158.647 118.297 161.921 115.879 163.98 117.873C166.21 120.032 168.304 122.35 170.422 124.645C170.386 124.32 170.357 123.99 170.321 123.66C169.666 122.592 169.006 121.53 168.304 120.486C168.032 120.103 167.767 119.719 167.507 119.33C166.428 117.719 167.507 116.256 168.953 115.849C168.758 113.755 168.846 111.608 169.018 109.573C168.876 109.101 168.74 108.623 168.611 108.145C168.357 107.178 168.758 106.257 169.442 105.668C169.985 101.621 170.793 97.6212 171.377 93.5804C171.542 92.4477 172.386 91.5688 173.353 91.2561C168.286 84.72 161.638 78.2015 154.052 71.8954H154.058Z" fill="black"/>
<path d="M177.576 132.462C192.75 114.212 185.552 83.2055 161.499 63.2083C137.446 43.211 105.647 41.795 90.4739 60.0455C75.3005 78.2961 82.4985 109.302 106.551 129.299C130.604 149.297 162.403 150.713 177.576 132.462Z" fill="#FFDB7F" stroke="black" stroke-width="1.1873" stroke-miterlimit="10"/>
<path d="M173.37 127.336C186.996 110.947 180.532 83.1027 158.932 65.1445C137.332 47.1863 108.775 45.9144 95.1494 62.3035C81.5235 78.6927 87.9878 106.537 109.588 124.495C131.188 142.453 159.744 143.725 173.37 127.336Z" fill="#FFDB7F" stroke="black" stroke-width="1.1873" stroke-miterlimit="10"/>
<path opacity="0.22" d="M82.6895 86.8553L185.257 101.939C185.257 101.939 181.233 85.6401 177.375 81.67L85.6449 67.9016C85.6449 67.9016 81.4684 76.3314 82.6895 86.8553Z" fill="white"/>
<path opacity="0.22" d="M185.493 111.148L85.2678 97.2968C85.2678 97.2968 84.9079 97.167 84.5127 97.1493C85.3622 99.4617 86.3414 101.721 86.9667 104.104C86.9962 104.222 87.0198 104.334 87.0316 104.446C87.2853 104.777 87.5448 105.113 87.828 105.473L184.384 119.206C184.384 119.206 184.59 119.035 184.885 118.734C184.897 118.551 184.915 118.374 184.968 118.191C185.334 116.834 185.646 115.478 185.859 114.097C185.859 113.832 185.876 113.566 185.918 113.301C185.941 113.165 185.971 113.035 186 112.906C186.024 112.658 186.059 112.41 186.077 112.162C186.083 112.062 186.095 111.968 186.106 111.879C185.935 111.637 185.729 111.396 185.493 111.148Z" fill="white"/>
<g opacity="0.82">
<path opacity="0.7" d="M132.682 62.9759L132.328 85.9409L151.925 100.512L132.682 62.97V62.9759Z" fill="black"/>
<path d="M132.675 62.976L112.812 89.1737L132.321 85.941L132.675 62.976Z" fill="black"/>
<path opacity="0.7" d="M131.949 110.216L131.695 126.709L151.923 104.287L131.949 110.216Z" fill="black"/>
<path d="M131.69 126.709L131.944 110.21L112.713 92.8429L131.69 126.704V126.709Z" fill="black"/>
<path opacity="0.5" d="M132.009 106.446L151.924 100.517L132.327 85.9468L132.009 106.446Z" fill="black"/>
<path opacity="0.7" d="M112.812 89.1736L132.002 106.44L132.321 85.9409L112.812 89.1677V89.1736Z" fill="black"/>
</g>
<path d="M285.593 227.671C286.784 228.55 297.361 236.224 298.636 236.926C317.796 247.45 345.722 238.071 363.118 214.468C380.32 191.138 381.205 162.091 366.032 146.753C364.835 145.544 354.205 137.533 352.807 136.506C333.705 122.425 312.504 138.294 293.946 163.471C275.387 188.648 266.491 213.59 285.593 227.677V227.671Z" fill="#F3B443" stroke="black" stroke-width="1.1873" stroke-miterlimit="10"/>
<path opacity="0.49" d="M293.927 163.206C312.485 138.028 333.687 122.154 352.788 136.241C354.186 137.273 364.816 145.278 366.014 146.488C377.629 158.233 379.823 178.006 372.503 197.102C369.907 194.512 367.217 192.028 364.439 189.633C359.973 185.156 355.106 181.08 349.903 177.469C350.599 163.683 351.177 150.652 349.325 152.599C340.441 161.955 326.826 199.626 314.739 221.406C314.426 221.27 314.09 221.193 313.742 221.193C313.96 220.839 314.173 220.485 314.379 220.132C315.783 217.742 313.193 215.861 311.176 216.686C311.259 216.462 311.353 216.238 311.43 216.008C312.238 213.696 308.799 211.601 307.212 213.554C306.811 214.044 306.427 214.545 306.044 215.047C306.48 214.291 306.911 213.53 307.33 212.769C308.928 209.855 304.858 207.655 302.97 210.221C300.451 213.643 298.404 217.748 296.033 221.559C297.602 218.545 299.106 215.495 299.897 212.162C300.563 209.354 296.812 207.785 295.284 210.215C293.632 212.846 292.157 215.601 290.653 218.338C290.606 218.014 290.559 217.689 290.517 217.359C290.895 216.167 291.284 214.976 291.715 213.796C291.886 213.359 292.051 212.923 292.21 212.486C292.871 210.664 291.473 209.501 289.975 209.448C289.662 207.366 289.06 205.301 288.405 203.372C288.429 202.877 288.447 202.381 288.459 201.886C288.47 200.883 287.863 200.086 287.061 199.679C285.568 195.88 283.822 192.194 282.288 188.406C281.858 187.344 280.825 186.696 279.811 186.625C283.167 179.062 288.057 171.146 293.915 163.2L293.927 163.206Z" fill="black"/>
<path d="M353.79 207.591C372.352 182.414 371.913 150.586 352.809 136.502C333.705 122.418 303.171 131.41 284.609 156.587C266.047 181.764 266.487 213.591 285.59 227.675C304.694 241.76 335.228 232.768 353.79 207.591Z" fill="#FFDB7F" stroke="black" stroke-width="1.1873" stroke-miterlimit="10"/>
<path d="M349.696 203.657C366.366 181.048 365.972 152.466 348.817 139.818C331.661 127.17 304.241 135.246 287.572 157.855C270.903 180.465 271.297 209.047 288.452 221.695C305.607 234.343 333.027 226.267 349.696 203.657Z" fill="#FFDB7F" stroke="black" stroke-width="1.1873" stroke-miterlimit="10"/>
<path opacity="0.29" d="M366.793 160.64L270.827 199.845C270.827 199.845 270.827 183.056 273.623 178.278L359.384 142.942C359.384 142.942 365.454 150.127 366.787 160.64H366.793Z" fill="white"/>
<path opacity="0.29" d="M272.803 208.847L366.792 171.394C366.792 171.394 367.111 171.181 367.489 171.069C367.217 173.517 366.81 175.942 366.775 178.413C366.775 178.537 366.775 178.649 366.792 178.761C366.627 179.139 366.456 179.534 366.262 179.947L275.805 216.409C275.805 216.409 275.563 216.291 275.204 216.067C275.15 215.896 275.086 215.725 274.997 215.56C274.319 214.327 273.687 213.088 273.157 211.802C273.092 211.548 273.009 211.295 272.909 211.041C272.856 210.917 272.797 210.793 272.732 210.675C272.649 210.439 272.555 210.209 272.484 209.973C272.455 209.879 272.419 209.791 272.384 209.702C272.496 209.425 272.632 209.142 272.803 208.847Z" fill="white"/>
<path opacity="0.49" fill-rule="evenodd" clip-rule="evenodd" d="M325.531 153.132L321.991 153.002C321.013 152.964 320.035 153.626 319.802 154.475L318.488 159.278C311.212 159.885 305.501 163.82 303.992 169.164C302.008 176.159 305.995 179.106 315.777 180.776C322.401 182.1 324.022 183.518 323.1 187.071C322.168 190.643 318.171 192.882 313.429 192.649C307.038 192.341 305.632 189.711 305.771 186.419C305.799 185.644 305.231 185.048 304.365 185.01L300.238 184.824C299.194 184.777 298.141 185.588 298.058 186.521C297.555 192.061 300.303 196.314 308.035 197.694L306.582 203.02C306.33 203.962 306.945 204.764 307.97 204.81L311.678 204.997C312.703 205.053 313.737 204.325 313.988 203.384L315.404 198.039C323.323 197.303 329.444 192.723 330.935 186.82C332.872 179.153 328.345 176.383 318.721 174.742C311.678 173.483 310.681 171.906 311.52 168.885C312.311 166.04 315.311 164.128 320.035 164.324C324.32 164.501 326.444 165.919 326.658 169.025C326.705 169.724 327.273 170.237 328.084 170.265L331.885 170.424C332.947 170.47 333.99 169.64 334 168.717C334.037 163.839 331.093 160.808 325.578 159.679L326.891 154.727C327.115 153.869 326.509 153.151 325.531 153.113V153.132Z" fill="black"/>
<path fill-rule="evenodd" clip-rule="evenodd" d="M217.147 60C221.094 60 224.294 63.19 224.294 67.125V69.1565C231.895 63.2825 241.267 60.0365 250.973 60.0001L251 60C261.874 60 272.302 64.3065 279.991 71.972C287.68 79.6376 292 90.0343 292 100.875C292 104.81 288.8 108 284.853 108C280.906 108 277.706 104.81 277.706 100.875C277.706 93.8136 274.893 87.0414 269.884 82.0483C264.879 77.0583 258.092 74.2536 251.013 74.25C245.465 74.2733 240.079 75.8531 235.447 78.75H235.954C239.901 78.75 243.101 81.94 243.101 85.875C243.101 89.81 239.901 93 235.954 93H217.147C213.2 93 210 89.81 210 85.875V67.125C210 63.19 213.2 60 217.147 60Z" fill="#A4DED2" stroke="black" stroke-linecap="round" stroke-linejoin="round"/>
<path fill-rule="evenodd" clip-rule="evenodd" d="M230.853 235C226.906 235 223.706 231.81 223.706 227.875L223.706 225.844C216.105 231.718 206.733 234.964 197.027 235L197 235C186.126 235 175.698 230.694 168.009 223.028C160.32 215.362 156 204.966 156 194.125C156 190.19 159.2 187 163.147 187C167.094 187 170.294 190.19 170.294 194.125C170.294 201.186 173.107 207.959 178.116 212.952C183.121 217.942 189.908 220.746 196.987 220.75C202.535 220.727 207.921 219.147 212.553 216.25L212.046 216.25C208.099 216.25 204.899 213.06 204.899 209.125C204.899 205.19 208.099 202 212.046 202L230.853 202C234.8 202 238 205.19 238 209.125L238 227.875C238 231.81 234.8 235 230.853 235Z" fill="#A4DED2" stroke="black" stroke-linecap="round" stroke-linejoin="round"/>
<path d="M101 47.2436C101 47.2436 113.645 45.9691 113.645 59C113.645 59 113.645 47 127 47.2091C127 47.2091 115.512 47.6055 113.645 35C113.645 35 114.001 47 101 47.2436Z" fill="white" stroke="black" stroke-miterlimit="10"/>
<path d="M356 198.386C356 198.386 376.33 196.368 376.33 217C376.33 217 376.33 198 397.8 198.331C397.8 198.331 379.331 198.959 376.33 179C376.33 179 376.902 198 356 198.386Z" fill="white" stroke="black" stroke-width="0.95" stroke-miterlimit="10"/>
<path d="M325.18 59V75.3668" stroke="black" stroke-miterlimit="10"/>
<path d="M333.36 67.1869H317" stroke="black" stroke-miterlimit="10"/>
<path d="M156.187 287.375C162.918 287.375 168.375 281.918 168.375 275.187C168.375 268.456 162.918 263 156.187 263C149.456 263 144 268.456 144 275.187C144 281.918 149.456 287.375 156.187 287.375Z" fill="#F3B443" stroke="black" stroke-miterlimit="10"/>
<path d="M149.366 275.769C147.677 273.356 146.939 270.289 147.194 267.337C145.214 269.466 144 272.305 144 275.443C144 282.03 149.345 287.374 155.932 287.374C160.439 287.374 164.35 284.869 166.373 281.185C160.34 282.817 152.794 280.674 149.366 275.769Z" fill="black"/>
<path d="M161.276 274.101C163.864 274.101 165.961 272.004 165.961 269.417C165.961 266.829 163.864 264.732 161.276 264.732C158.689 264.732 156.592 266.829 156.592 269.417C156.592 272.004 158.689 274.101 161.276 274.101Z" fill="white"/>
<path d="M40.2443 142.489C44.7975 142.489 48.4886 138.798 48.4886 134.244C48.4886 129.691 44.7975 126 40.2443 126C35.6911 126 32 129.691 32 134.244C32 138.798 35.6911 142.489 40.2443 142.489Z" fill="#F3B443" stroke="black" stroke-miterlimit="10"/>
<path d="M35.63 134.638C34.4872 133.005 33.9879 130.931 34.1607 128.934C32.8211 130.374 32 132.295 32 134.417C32 138.873 35.6156 142.489 40.0715 142.489C43.1205 142.489 45.7661 140.794 47.1346 138.302C43.0532 139.406 37.9492 137.956 35.63 134.638Z" fill="black"/>
<path d="M43.6876 133.51C45.4378 133.51 46.8567 132.091 46.8567 130.341C46.8567 128.59 45.4378 127.172 43.6876 127.172C41.9374 127.172 40.5186 128.59 40.5186 130.341C40.5186 132.091 41.9374 133.51 43.6876 133.51Z" fill="white"/>
</svg>
